<svg width="17" height="17" viewBox="0 0 17 17" fill="none" xmlns="http://www.w3.org/2000/svg">
<mask id="mask0_1_4279" style="mask-type:luminance" maskUnits="userSpaceOnUse" x="0" y="0" width="17" height="17">
<path d="M16.3333 0H0V16.3333H16.3333V0Z" fill="white"/>
</mask>
<g mask="url(#mask0_1_4279)">
<path d="M3.77002 13.2836C3.35489 13.2836 2.96697 13.1407 2.68794 12.8752C2.33405 12.5418 2.16391 12.0382 2.22516 11.4937L2.47697 9.28871C2.52461 8.87358 2.77641 8.32233 3.06905 8.02288L8.65642 2.10883C10.0516 0.632021 11.5079 0.591188 12.9848 1.98633C14.4616 3.38146 14.5024 4.83785 13.1073 6.31466L7.51989 12.2287C7.23406 12.535 6.70322 12.8208 6.28808 12.8889L4.09669 13.2632C3.981 13.27 3.87891 13.2836 3.77002 13.2836ZM10.841 1.97952C10.317 1.97952 9.861 2.30619 9.39823 2.79619L3.81086 8.71705C3.67475 8.85996 3.51822 9.20024 3.491 9.3976L3.23919 11.6026C3.21197 11.8272 3.26641 12.0109 3.38891 12.1266C3.51141 12.2423 3.69516 12.2832 3.91975 12.2491L6.11114 11.8748C6.3085 11.8408 6.63516 11.6639 6.77127 11.5209L12.3586 5.60688C13.2025 4.70855 13.5088 3.87827 12.277 2.72133C11.7325 2.1973 11.2629 1.97952 10.841 1.97952Z" fill="black"/>
<path d="M11.8012 7.45211C11.7876 7.45211 11.7672 7.45211 11.7535 7.45211C9.63021 7.24114 7.92202 5.62824 7.59535 3.51852C7.55452 3.23949 7.74507 2.98088 8.0241 2.93324C8.30313 2.89241 8.56174 3.08296 8.60938 3.36199C8.86799 5.00894 10.2019 6.27477 11.8624 6.4381C12.1415 6.46532 12.3456 6.71713 12.3184 6.99614C12.2844 7.25475 12.0598 7.45211 11.8012 7.45211Z" fill="black"/>
<path d="M14.2917 15.4823H2.04167C1.76264 15.4823 1.53125 15.2509 1.53125 14.9718C1.53125 14.6928 1.76264 14.4614 2.04167 14.4614H14.2917C14.5707 14.4614 14.8021 14.6928 14.8021 14.9718C14.8021 15.2509 14.5707 15.4823 14.2917 15.4823Z" fill="black"/>
</g>
</svg>
