<svg width="44" height="52" viewBox="0 0 44 52" fill="none" xmlns="http://www.w3.org/2000/svg">
<path d="M25.243 22.7174C25.2821 19.8328 25.4924 16.9736 26.5032 14.2316C27.2249 12.2692 28.2883 10.5282 30.0607 9.34528C32.5413 7.66892 35.1014 7.87697 37.6217 9.26726C39.9709 10.5669 41.3888 12.672 42.4387 15.0372C43.4233 17.2723 43.8303 19.6508 43.9617 22.0806C44.1983 26.2262 43.2791 30.1897 42.0715 34.1012C41.8221 34.894 41.6253 35.7129 41.3362 36.4924C41.0478 37.2459 40.7324 37.4279 39.9184 37.2719C38.6056 37.0118 37.3064 36.6224 35.9936 36.401C33.2239 35.9336 30.4407 35.5308 27.6582 35.1407C26.4372 34.972 26.2013 34.7507 26.0962 33.5551C25.8205 30.3324 25.5314 27.123 25.2558 23.8997C25.2167 23.4969 25.243 23.1075 25.243 22.7174Z" fill="#D3FFE1"/>
<mask id="mask0_1_4265" style="mask-type:luminance" maskUnits="userSpaceOnUse" x="0" y="0" width="20" height="29">
<path d="M0 0H19.3218V28.4467H0V0Z" fill="white"/>
</mask>
<g mask="url(#mask0_1_4265)">
<path d="M13.6914 27.4996C11.6697 27.6037 9.63523 27.6683 7.61356 27.8244C6.06495 27.9411 4.51567 28.1624 2.96707 28.2925C1.8383 28.3958 1.51012 28.1624 1.29986 27.0449C0.971677 25.2645 0.669773 23.4708 0.420433 21.6777C0.105052 19.3512 -0.0519654 16.9994 0.197375 14.6603C0.682577 10.112 1.95623 5.88839 5.40858 2.58769C7.06231 1.01536 9.0449 0.0924997 11.3415 0.0538247C13.6523 0.014483 15.49 1.04137 16.8553 2.87376C18.1681 4.61479 18.7719 6.62922 19.0212 8.76034C19.5199 12.9192 18.8763 16.9734 17.9969 21.0149C17.6033 22.834 17.1963 24.6537 16.7765 26.4728C16.5662 27.3823 16.4085 27.4996 15.4502 27.5383C14.8599 27.5643 14.2689 27.5383 13.6786 27.5383C13.7049 27.5383 13.6914 27.5123 13.6914 27.4996Z" fill="#32EA6E"/>
</g>
<path d="M17.3417 36.8429C17.3155 38.74 16.7642 40.4683 15.5701 41.976C13.4433 44.6532 9.66275 44.8093 7.35264 42.2881C6.76164 41.6513 6.25016 40.9238 5.84313 40.1696C4.5041 37.6617 3.70352 34.9585 2.87598 32.2559C2.56127 31.229 2.87598 30.813 3.93938 30.7223C5.09443 30.6183 6.26296 30.6183 7.43149 30.5402C9.51853 30.3975 11.6184 30.2022 13.7061 30.0728C14.349 30.0335 14.9926 30.1115 15.6355 30.1502C16.0027 30.1635 16.1739 30.4102 16.2393 30.7223C16.5937 32.4373 16.961 34.153 17.3027 35.8814C17.3552 36.1934 17.3289 36.5182 17.3417 36.8429Z" fill="#32EA6E"/>
<path d="M24.9026 42.0281C25.257 40.8065 25.7294 39.6109 26.1102 38.4026C26.2813 37.8439 26.5833 37.5318 27.1871 37.6225C28.6568 37.8565 30.1138 38.0906 31.5842 38.3373C33.8027 38.714 36.0346 39.0915 38.253 39.4942C39.4997 39.7149 39.7888 40.1697 39.2504 41.3653C38.3973 43.2623 37.5043 45.1341 36.507 46.9665C35.916 48.0447 35.1942 49.0976 34.3674 50.0071C32.7393 51.7875 30.7048 52.4763 28.3286 51.6575C26.4518 51.008 25.3884 49.5523 24.8109 47.7593C24.5218 46.8884 24.6141 43.003 24.9026 42.0281Z" fill="#D3FFE1"/>
</svg>
