<svg width="44" height="66" viewBox="0 0 44 66" fill="none" xmlns="http://www.w3.org/2000/svg">
<path d="M24.7661 3.3647C24.3249 3.33262 24.2768 5.03935 23.4569 7.45907C22.6378 9.87968 13.1247 8.15691 9.54993 15.7654C5.97426 23.3758 6.1436 38.2007 6.1436 38.2007C6.1436 38.2007 0.613441 47.8742 0.0118524 54.5541C-0.586171 61.1814 21.6316 68.9441 24.66 63.1671C27.7126 57.3428 28.3409 45.9563 28.3409 45.9563C28.3409 45.9563 36.3416 33.986 37.4654 25.5192C38.5893 17.0542 29.9255 12.426 30.5414 9.93405C31.1572 7.44303 32.0235 6.02239 31.6465 5.76838C31.4005 5.60083 29.4647 5.05539 28.1662 4.70246C26.922 4.16682 25.0575 3.3852 24.767 3.36559L24.7661 3.3647Z" fill="#30CFFF"/>
<path d="M17.8086 9.69769C17.8086 9.69769 33.2645 15.4997 33.7431 14.5309C34.2199 13.5621 37.9685 5.18533 34.7689 3.46523C31.5676 1.74602 22.1659 -1.20488 20.6205 0.525914C19.0742 2.2576 17.8086 9.69769 17.8086 9.69769Z" fill="#019FCF"/>
<path d="M30.4105 1.68297C30.3775 1.96906 30.365 2.3104 30.3766 2.71592C30.4604 5.59285 27.2822 11.8137 27.5755 12.4857C28.9792 13.8832 30.9853 5.85042 31.4372 2.04214L30.4105 1.68297ZM33.586 2.89684C33.5174 3.21591 33.4862 3.64637 33.5227 4.22479C33.6831 6.83613 30.7055 12.3734 31.0148 12.9919C32.4826 14.3413 34.3106 6.67303 34.5806 3.36742C34.2883 3.21769 33.955 3.05994 33.586 2.89684ZM27.5665 0.829158C27.2074 0.733796 26.8491 0.644671 26.4962 0.563568C24.9204 3.65261 22.3911 11.0562 24.277 10.8637C24.8607 10.5384 25.4365 3.9182 26.9783 1.80685C27.2546 1.42896 27.4427 1.10633 27.5665 0.83005V0.829158ZM24.1887 0.12686C23.7832 0.0716027 23.3955 0.0323879 23.0364 0.0136719C21.5587 2.84247 19.3627 9.25051 21.1942 9.1391C21.7646 8.86192 22.1531 2.87902 23.6219 1.01454C23.8919 0.6723 24.0729 0.37819 24.1878 0.125968L24.1887 0.12686Z" fill="#30CFFF"/>
<path d="M31.9273 12.7385C26.9479 10.8571 21.5096 9.87939 18.4125 9.43555C17.687 9.61647 16.9259 9.82769 16.1621 10.1004C16.3234 11.0959 19.8741 11.9132 23.9703 14.4069C34.5315 20.8354 34.5155 31.0945 24.9346 43.9783C23.6619 45.6886 24.7679 55.413 18.1175 65.1275C21.2404 65.3895 23.7724 64.8583 24.6592 63.1676C27.7117 57.3425 28.34 45.956 28.34 45.956C28.34 45.956 36.3407 33.9857 37.4646 25.5189C38.2569 19.5494 34.1821 15.4871 31.9273 12.7385Z" fill="#4F9BC5"/>
<path d="M36.2241 30.4952C33.2946 29.9721 28.7225 29.0603 23.2467 27.645C17.2317 26.0916 11.3388 23.2539 7.75066 21.3359C6.88705 25.1879 6.4851 29.448 6.29883 32.7224C8.10538 33.7705 10.3932 34.9497 13.2158 36.2331C18.5891 38.6777 26.1495 40.0725 31.562 40.6082C33.1573 37.7419 34.9986 34.0718 36.2241 30.4952Z" fill="#019FCF"/>
<path d="M36.1847 30.4878C34.9806 30.273 33.511 29.994 31.8105 29.6411C31.314 32.8523 29.8925 36.3504 27.5762 40.1061C28.9817 40.3191 30.3274 40.4866 31.5609 40.6078C31.9174 39.9688 32.2864 39.2888 32.658 38.5767C33.5644 36.8432 34.4485 34.895 35.2462 32.9485C35.4833 32.3692 35.7266 31.7961 35.9378 31.2159C36.0269 30.9717 36.1018 30.7311 36.1847 30.4878Z" fill="#30CFFF"/>
<path d="M35.4355 13.148C34.8107 12.8994 34.1717 12.7532 33.5238 12.7292C33.5238 12.7292 33.5006 12.7514 33.4641 12.7933C29.9535 11.6053 22.1096 8.86474 18.1802 7.49133V7.49312C17.7123 7.32913 16.9351 9.52248 17.4609 9.85491C17.7114 10.0118 32.3464 15.0901 34.2876 15.763C36.964 18.8912 37.9479 30.4925 43.085 28.5487C46.0235 27.4382 41.463 15.5491 35.4346 13.148H35.4355ZM36.9818 15.0339C37.0959 15.0865 37.2162 15.164 37.3276 15.2844C39.3017 16.8975 42.4897 21.7361 43.0111 25.703C43.2579 27.5773 41.4844 27.8277 40.8079 26.6878C39.1618 22.5212 37.0308 18.319 36.2225 15.918C35.997 15.2505 36.4747 14.8236 36.9818 15.0339Z" fill="#30CFFF"/>
</svg>
