<svg width="36" height="36" viewBox="0 0 36 36" fill="none" xmlns="http://www.w3.org/2000/svg">
<g clip-path="url(#clip0_1_4026)">
<mask id="mask0_1_4026" style="mask-type:luminance" maskUnits="userSpaceOnUse" x="0" y="0" width="36" height="36">
<path d="M36 0H0V36H36V0Z" fill="white"/>
</mask>
<g mask="url(#mask0_1_4026)">
<path d="M10.1842 33.4653C9.56922 33.4653 9.04422 33.0453 8.90922 32.4453L8.51922 30.7653C8.33922 29.9703 7.70922 29.3403 6.91422 29.1453L5.20422 28.7553C4.61922 28.6353 4.19922 28.1103 4.19922 27.4953C4.19922 26.8803 4.61922 26.3553 5.21922 26.2203L6.89922 25.8303C7.69422 25.6503 8.32422 25.0203 8.51922 24.2253L8.90922 22.5153C9.02922 21.9303 9.55422 21.5103 10.1842 21.5103C10.8142 21.5103 11.3242 21.9303 11.4592 22.5303L11.8492 24.2103C12.0292 25.0053 12.6592 25.6353 13.4542 25.8303L15.1641 26.2203C15.7491 26.3553 16.1691 26.8803 16.1691 27.4953C16.1691 28.1103 15.7491 28.6203 15.1641 28.7553L13.4692 29.1453C12.6742 29.3253 12.0442 29.9553 11.8492 30.7503L11.4592 32.4603C11.3392 33.0453 10.8142 33.4653 10.1842 33.4653ZM8.72922 27.4953C9.32922 27.8553 9.83922 28.3653 10.1992 28.9653C10.5592 28.3653 11.0692 27.8553 11.6692 27.4953C11.0692 27.1353 10.5592 26.6253 10.1992 26.0253C9.83922 26.6253 9.32922 27.1353 8.72922 27.4953Z" fill="#2ED3EC"/>
<path d="M14.295 21.3601C13.92 21.3601 13.545 21.1801 13.335 20.8351C13.02 20.2951 13.185 19.6051 13.725 19.2901L24.225 12.9901C24.525 12.8101 24.84 12.2551 24.84 11.9101V6.13514C24.84 5.44514 24.285 4.89014 23.595 4.89014H12.51C11.82 4.89014 11.265 5.44514 11.265 6.13514V11.9101C11.265 12.2551 11.58 12.8101 11.88 12.9901L13.875 14.2051C14.4 14.5201 14.58 15.2251 14.25 15.7501C13.935 16.2751 13.23 16.4551 12.705 16.1251L10.695 14.9101C9.72 14.3101 9 13.0201 9 11.9101V6.13514C9 4.21514 10.56 2.64014 12.495 2.64014H23.58C25.5 2.64014 27.075 4.21514 27.075 6.13514V11.9101C27.075 13.0501 26.34 14.3401 25.365 14.9101L14.88 21.1951C14.7 21.3001 14.505 21.3601 14.295 21.3601Z" fill="#2ED3EC"/>
<path d="M16.0352 33.375C15.4202 33.375 14.9102 32.865 14.9102 32.25C14.9102 31.635 15.4202 31.125 16.0352 31.125H23.5502C24.2402 31.125 24.7952 30.57 24.7952 29.88V24.105C24.7952 23.76 24.4802 23.205 24.1952 23.04L22.1852 21.825C21.6602 21.51 21.4802 20.805 21.8102 20.28C22.1252 19.755 22.8152 19.575 23.3552 19.905L25.3652 21.12C26.3252 21.69 27.0602 22.98 27.0602 24.12V29.895C27.0602 31.83 25.5002 33.39 23.5652 33.39L16.0352 33.375Z" fill="#2ED3EC"/>
</g>
</g>
<defs>
<clipPath id="clip0_1_4026">
<rect width="36" height="36" fill="white"/>
</clipPath>
</defs>
</svg>
