<svg width="60" height="60" viewBox="0 0 60 60" fill="none" xmlns="http://www.w3.org/2000/svg">
<g clip-path="url(#clip0_1_4351)">
<mask id="mask0_1_4351" style="mask-type:luminance" maskUnits="userSpaceOnUse" x="0" y="0" width="60" height="60">
<path d="M60 0H0V60H60V0Z" fill="white"/>
</mask>
<g mask="url(#mask0_1_4351)">
<path d="M29.9259 5C16.1258 5 4.92578 16.2 4.92578 30C4.92578 43.8 16.1258 55 29.9259 55C43.7259 55 54.9258 43.8 54.9258 30C54.9258 16.2 43.7509 5 29.9259 5ZM26.8009 37.575C26.8009 38.775 26.3009 39.25 25.0259 39.25H21.7758C20.5008 39.25 20.0008 38.775 20.0008 37.575V22.425C20.0008 21.225 20.5008 20.75 21.7758 20.75H25.0008C26.2759 20.75 26.7759 21.225 26.7759 22.425V37.575H26.8009ZM40.0009 37.575C40.0009 38.775 39.5009 39.25 38.2259 39.25H35.0009C33.7259 39.25 33.2259 38.775 33.2259 37.575V22.425C33.2259 21.225 33.7259 20.75 35.0009 20.75H38.2259C39.5009 20.75 40.0009 21.225 40.0009 22.425V37.575Z" fill="#32EA6E"/>
</g>
</g>
<defs>
<clipPath id="clip0_1_4351">
<rect width="60" height="60" fill="white"/>
</clipPath>
</defs>
</svg>
