<svg width="36" height="36" viewBox="0 0 36 36" fill="none" xmlns="http://www.w3.org/2000/svg">
<g clip-path="url(#clip0_1_4039)">
<mask id="mask0_1_4039" style="mask-type:luminance" maskUnits="userSpaceOnUse" x="0" y="0" width="36" height="36">
<path d="M36 0H0V36H36V0Z" fill="white"/>
</mask>
<g mask="url(#mask0_1_4039)">
<path d="M18.0006 34.1257C17.1006 34.1257 16.2156 33.9157 15.4956 33.5107L8.40062 29.4157C5.46062 27.4357 5.26562 27.0757 5.26562 23.9707V16.5307C5.26562 13.4258 5.46062 13.0658 8.34062 11.1308L15.5106 6.99082C16.9356 6.16582 19.0806 6.16582 20.5056 6.99082L27.6006 11.0858C30.5406 13.0658 30.7356 13.4258 30.7356 16.5307V23.9707C30.7356 27.0757 30.5406 27.4357 27.6606 29.3707L20.4906 33.5107C19.7856 33.9307 18.8856 34.1257 18.0006 34.1257ZM18.0006 8.62582C17.4906 8.62582 16.9806 8.73082 16.6206 8.94082L9.52562 13.0358C7.51562 14.4008 7.51562 14.4008 7.51562 16.5307V23.9707C7.51562 26.1007 7.51563 26.1007 9.60063 27.5107L16.6356 31.5607C17.3556 31.9807 18.6606 31.9807 19.3806 31.5607L26.4756 27.4657C28.4856 26.1007 28.4856 26.1007 28.4856 23.9707V16.5307C28.4856 14.4008 28.4856 14.4008 26.4006 12.9908L19.3656 8.94082C19.0206 8.73082 18.5106 8.62582 18.0006 8.62582Z" fill="#32EA6E"/>
<path d="M26.25 12.5698C25.635 12.5698 25.125 12.0598 25.125 11.4448V7.49976C25.125 5.12976 24.12 4.12476 21.75 4.12476H14.25C11.88 4.12476 10.875 5.12976 10.875 7.49976V11.3398C10.875 11.9548 10.365 12.4648 9.75 12.4648C9.135 12.4648 8.625 11.9698 8.625 11.3398V7.49976C8.625 3.86976 10.62 1.87476 14.25 1.87476H21.75C25.38 1.87476 27.375 3.86976 27.375 7.49976V11.4448C27.375 12.0598 26.865 12.5698 26.25 12.5698Z" fill="#32EA6E"/>
<path d="M20.4463 26.4434C20.1313 26.4434 19.8013 26.3834 19.4713 26.2484L18.0013 25.6784L16.5313 26.2634C15.7363 26.5784 14.9263 26.5034 14.3263 26.0684C13.7263 25.6334 13.4113 24.8834 13.4563 24.0284L13.5463 22.4534L12.5413 21.2384C12.0013 20.5634 11.8213 19.7834 12.0613 19.0634C12.2863 18.3584 12.9013 17.8184 13.7263 17.6084L15.2563 17.2184L16.1113 15.8834C17.0263 14.4435 18.9913 14.4435 19.9063 15.8834L20.7613 17.2184L22.2913 17.6084C23.1163 17.8184 23.7313 18.3584 23.9563 19.0634C24.1813 19.7684 24.0013 20.5634 23.4613 21.2234L22.4563 22.4384L22.5463 24.0134C22.5913 24.8684 22.2763 25.6034 21.6763 26.0534C21.3163 26.3084 20.8963 26.4434 20.4463 26.4434ZM14.2813 19.7984L15.2863 21.0134C15.6313 21.4184 15.8263 22.0634 15.7963 22.5884L15.7063 24.1634L17.1763 23.5784C17.6713 23.3834 18.3313 23.3834 18.8263 23.5784L20.2963 24.1634L20.2063 22.5884C20.1763 22.0634 20.3713 21.4334 20.7163 21.0134L21.7213 19.7984L20.1913 19.4084C19.6813 19.2734 19.1413 18.8834 18.8563 18.4484L18.0163 17.1284L17.1613 18.4484C16.8763 18.8984 16.3363 19.2884 15.8263 19.4234L14.2813 19.7984Z" fill="#32EA6E"/>
</g>
</g>
<defs>
<clipPath id="clip0_1_4039">
<rect width="36" height="36" fill="white"/>
</clipPath>
</defs>
</svg>
