<svg width="40" height="40" viewBox="0 0 40 40" fill="none" xmlns="http://www.w3.org/2000/svg">
<path d="M13.016 3.33325H26.9827C33.0493 3.33325 36.666 6.94992 36.666 13.0166V26.9666C36.666 33.0499 33.0493 36.6666 26.9827 36.6666H13.0327C6.96601 36.6666 3.34935 33.0499 3.34935 26.9833V13.0166C3.33268 6.94992 6.94935 3.33325 13.016 3.33325ZM15.3493 20.8833L21.2327 26.7666C21.4827 27.0166 21.7993 27.1333 22.116 27.1333C22.4327 27.1333 22.7493 27.0166 22.9993 26.7666C23.4827 26.2833 23.4827 25.4833 22.9993 24.9999L17.9993 19.9999L22.9993 14.9999C23.4827 14.5166 23.4827 13.7166 22.9993 13.2333C22.516 12.7499 21.716 12.7499 21.2327 13.2333L15.3493 19.1166C14.8493 19.5999 14.8493 20.3999 15.3493 20.8833Z" fill="#32EA6E"/>
</svg>
