<svg width="40" height="40" viewBox="0 0 40 40" fill="none" xmlns="http://www.w3.org/2000/svg">
<path d="M26.984 3.33325H13.0173C6.95065 3.33325 3.33398 6.94992 3.33398 13.0166V26.9666C3.33398 33.0499 6.95065 36.6666 13.0173 36.6666H26.9673C33.034 36.6666 36.6507 33.0499 36.6507 26.9833V13.0166C36.6673 6.94992 33.0507 3.33325 26.984 3.33325ZM24.6507 20.8833L18.7673 26.7666C18.5173 27.0166 18.2007 27.1333 17.884 27.1333C17.5673 27.1333 17.2507 27.0166 17.0007 26.7666C16.5173 26.2833 16.5173 25.4833 17.0007 24.9999L22.0007 19.9999L17.0007 14.9999C16.5173 14.5166 16.5173 13.7166 17.0007 13.2333C17.484 12.7499 18.284 12.7499 18.7673 13.2333L24.6507 19.1166C25.1507 19.5999 25.1507 20.3999 24.6507 20.8833Z" fill="#32EA6E"/>
</svg>
