<svg width="14" height="14" viewBox="0 0 14 14" fill="none" xmlns="http://www.w3.org/2000/svg">
<g clip-path="url(#clip0_1_3971)">
<mask id="mask0_1_3971" style="mask-type:luminance" maskUnits="userSpaceOnUse" x="0" y="0" width="14" height="14">
<path d="M14 0H0V14H14V0Z" fill="white"/>
</mask>
<g mask="url(#mask0_1_3971)">
<path d="M8.74935 13.2709H5.24935C2.08185 13.2709 0.728516 11.9176 0.728516 8.75008V5.25008C0.728516 2.08258 2.08185 0.729248 5.24935 0.729248H8.74935C11.9169 0.729248 13.2702 2.08258 13.2702 5.25008V8.75008C13.2702 11.9176 11.9169 13.2709 8.74935 13.2709ZM5.24935 1.60425C2.56018 1.60425 1.60352 2.56091 1.60352 5.25008V8.75008C1.60352 11.4392 2.56018 12.3959 5.24935 12.3959H8.74935C11.4385 12.3959 12.3952 11.4392 12.3952 8.75008V5.25008C12.3952 2.56091 11.4385 1.60425 8.74935 1.60425H5.24935Z" fill="#2ED3EC"/>
<path d="M4.27574 8.89C4.1824 8.89 4.08907 8.86083 4.0074 8.79666C3.8149 8.65083 3.7799 8.37666 3.92574 8.18416L5.31407 6.38166C5.48324 6.16583 5.7224 6.02583 5.99656 5.99083C6.2649 5.95583 6.53906 6.03166 6.7549 6.20083L7.8224 7.04083C7.86323 7.07583 7.90406 7.07583 7.93323 7.07C7.95656 7.07 7.9974 7.05833 8.0324 7.01167L9.3799 5.27334C9.52573 5.08084 9.80573 5.04584 9.9924 5.1975C10.1849 5.34334 10.2199 5.6175 10.0682 5.81L8.72073 7.54833C8.55156 7.76416 8.3124 7.90416 8.03823 7.93333C7.76406 7.96833 7.49573 7.8925 7.2799 7.72333L6.2124 6.88333C6.17156 6.84833 6.1249 6.84833 6.10156 6.85416C6.07823 6.85416 6.0374 6.86583 6.0024 6.9125L4.61407 8.715C4.53824 8.83166 4.4099 8.89 4.27574 8.89Z" fill="#2ED3EC"/>
</g>
</g>
<defs>
<clipPath id="clip0_1_3971">
<rect width="14" height="14" fill="white"/>
</clipPath>
</defs>
</svg>
