<svg width="14" height="14" viewBox="0 0 14 14" fill="none" xmlns="http://www.w3.org/2000/svg">
<g clip-path="url(#clip0_1_3998)">
<mask id="mask0_1_3998" style="mask-type:luminance" maskUnits="userSpaceOnUse" x="0" y="0" width="14" height="14">
<path d="M14 0H0V14H14V0Z" fill="white"/>
</mask>
<g mask="url(#mask0_1_3998)">
<path d="M8.16667 13.2709H5.83333C2.66583 13.2709 1.3125 11.9176 1.3125 8.75008V5.25008C1.3125 2.08258 2.66583 0.729248 5.83333 0.729248H8.16667C11.3342 0.729248 12.6875 2.08258 12.6875 5.25008V8.75008C12.6875 11.9176 11.3342 13.2709 8.16667 13.2709ZM5.83333 1.60425C3.14417 1.60425 2.1875 2.56091 2.1875 5.25008V8.75008C2.1875 11.4392 3.14417 12.3959 5.83333 12.3959H8.16667C10.8558 12.3959 11.8125 11.4392 11.8125 8.75008V5.25008C11.8125 2.56091 10.8558 1.60425 8.16667 1.60425H5.83333Z" fill="#2ED3EC"/>
<path d="M8.79118 7.31477C8.68618 7.31477 8.58118 7.27393 8.49951 7.20393C7.64784 6.4456 6.35284 6.4456 5.50118 7.20393C5.40785 7.29143 5.27952 7.32643 5.14535 7.30893C5.01702 7.29143 4.90618 7.2156 4.83618 7.10477L3.56452 5.06311C3.45368 4.88227 3.48868 4.64894 3.64618 4.50311C5.55952 2.80561 8.44118 2.80561 10.3545 4.50311C10.512 4.64311 10.547 4.88227 10.4362 5.06311L9.16451 7.10477C9.09451 7.2156 8.98368 7.2856 8.85534 7.30893C8.83201 7.30893 8.80868 7.31477 8.79118 7.31477ZM7.00034 5.75727C7.58368 5.75727 8.16118 5.9206 8.66868 6.24143L9.48534 4.92894C8.00951 3.83227 5.98535 3.83227 4.50952 4.92894L5.32618 6.24143C5.83951 5.91477 6.41701 5.75727 7.00034 5.75727Z" fill="#2ED3EC"/>
</g>
</g>
<defs>
<clipPath id="clip0_1_3998">
<rect width="14" height="14" fill="white"/>
</clipPath>
</defs>
</svg>
