<svg width="82" height="89" viewBox="0 0 82 89" fill="none" xmlns="http://www.w3.org/2000/svg">
<path d="M43.5053 64.4211H38.4904C38.1347 64.4211 37.7943 64.5783 37.549 64.8558C37.3035 65.1333 37.1748 65.507 37.1921 65.8898L38.0304 84.2207C38.8887 84.2027 39.7562 84.1925 40.6315 84.1903L39.8559 67.2207H42.14L41.3642 84.1903C42.2398 84.1925 43.1073 84.2027 43.9659 84.2207L44.8036 65.8898C44.8212 65.507 44.6922 65.1333 44.447 64.8558C44.2015 64.5783 43.8613 64.4211 43.5053 64.4211ZM74.7576 12.3735V8.73976L67.2915 16.0937L74.7576 23.4459V19.8113H81.9957V12.3735H74.7576ZM40.5274 45.0436C33.1591 45.0436 25.9745 43.8013 19.4511 41.4252C19.3457 41.3418 19.2274 41.2746 19.0972 41.2278C18.9748 41.1835 18.8509 41.1606 18.7283 41.1565C17.2208 40.5831 15.7496 39.9497 14.3219 39.2547C14.3176 39.2525 14.3127 39.2511 14.3084 39.2492C14.8456 37.8087 15.432 36.3649 16.0693 34.9175C23.4318 38.3008 31.8727 40.0861 40.5615 40.0861C49.5569 40.0861 58.2436 38.186 65.7792 34.5837C66.4154 36.0127 67.0029 37.4371 67.5418 38.8594C59.5705 42.9054 50.2327 45.0436 40.5274 45.0436ZM64.3332 24.1844C61.3136 18.9072 60.5462 13.2779 62.0519 7.45314C63.1996 3.01505 65.3035 0.106352 65.3243 0.0776454C65.3431 0.0524926 65.3588 0.025973 65.3756 0C63.9861 0.342843 62.4731 0.657252 60.8541 0.937213C60.1626 2.34194 59.406 4.16989 58.8356 6.32646C57.5825 11.0647 57.0197 18.341 61.456 26.0938C62.4593 27.8485 63.39 29.5938 64.2507 31.3324C57.1809 34.6815 49.0245 36.4466 40.5615 36.4466C32.4005 36.4466 24.4869 34.7928 17.5861 31.6572C18.4907 29.8109 19.4744 27.957 20.5407 26.0938C24.9768 18.341 24.414 11.0647 23.1606 6.32646C22.5902 4.16989 21.8337 2.34194 21.1424 0.937213C19.5229 0.657252 18.0106 0.342843 16.6204 0C16.6374 0.025973 16.6532 0.0524926 16.6714 0.0776454C16.6928 0.106352 18.7966 3.01505 19.9444 7.45314C21.4506 13.2779 20.6834 18.9072 17.6636 24.1844C10.9845 35.8566 7.39754 47.09 6.69762 58.5258C6.10026 68.2864 7.64024 78.0449 11.4029 88.328C12.3478 87.9305 13.4265 87.5543 14.6237 87.2018C8.86619 71.5771 8.41912 56.8474 13.3851 41.8703C14.5768 42.4455 15.7961 42.9811 17.0403 43.4757C12.9426 57.5725 13.3874 71.5858 18.3881 86.2586C19.2104 86.0825 20.068 85.9163 20.9583 85.7599C20.9451 85.6675 20.9233 85.5748 20.892 85.4835C16.0451 71.3717 15.5869 57.9128 19.4996 44.3905C26.0535 46.6597 33.2076 47.8433 40.5274 47.8433C48.1829 47.8433 55.6277 46.5575 62.4081 44.0925C66.4141 57.7154 65.9864 71.2681 61.1037 85.4835C61.0724 85.5748 61.0511 85.6675 61.0374 85.7599C61.9277 85.9163 62.7856 86.0825 63.6079 86.2586C68.6485 71.4693 69.0572 57.3499 64.8544 43.1405C66.09 42.6268 67.2994 42.0713 68.4809 41.4769C73.5852 56.5885 73.1798 71.4393 67.3728 87.2021C68.5698 87.5543 69.6487 87.9307 70.5936 88.3282C74.3555 78.0443 75.895 68.2856 75.2984 58.5258C74.5984 47.0895 71.0115 35.8566 64.3332 24.1844ZM7.23811 23.4459L14.7047 16.0937L7.23811 8.73976V12.3735H0V19.8113H7.23811V23.4459ZM40.9976 33.4917C41.857 33.4917 42.5556 32.1206 42.5556 30.4324C42.5556 28.7422 41.857 27.3725 40.9976 27.3725C40.1375 27.3725 39.4401 28.7422 39.4401 30.4324C39.4401 32.1206 40.1375 33.4917 40.9976 33.4917Z" fill="#07DFFF"/>
</svg>
