<svg width="48" height="48" viewBox="0 0 48 48" fill="none" xmlns="http://www.w3.org/2000/svg">
<path d="M33.7184 5.50002C34.3434 5.50002 34.9544 5.68535 35.474 6.03257C35.9937 6.3798 36.3987 6.87332 36.6379 7.45074C36.8771 8.02815 36.9396 8.66352 36.8177 9.2765C36.6958 9.88948 36.3948 10.4525 35.9529 10.8945C35.511 11.3364 34.9479 11.6374 34.3349 11.7593C33.7219 11.8812 33.0866 11.8186 32.5092 11.5795C31.9317 11.3403 31.4382 10.9353 31.091 10.4156C30.7438 9.89596 30.5584 9.285 30.5584 8.66002C30.5571 8.24467 30.638 7.83316 30.7963 7.44918C30.9546 7.06519 31.1873 6.71631 31.481 6.42261C31.7747 6.12892 32.1236 5.8962 32.5076 5.73787C32.8916 5.57953 33.3031 5.4987 33.7184 5.50002ZM21.4684 11.77H29.4684C29.6155 11.7694 29.7612 11.7983 29.8969 11.855C30.0326 11.9117 30.1555 11.995 30.2584 12.1L35.4984 17.32L39.1584 12.87C39.3405 12.6464 39.6036 12.504 39.8904 12.4741C40.1771 12.4441 40.4641 12.5289 40.6884 12.71L41.4384 13.26C41.5558 13.3497 41.6536 13.4623 41.7261 13.591C41.7986 13.7197 41.8441 13.8617 41.86 14.0086C41.8759 14.1554 41.8618 14.3039 41.8186 14.4451C41.7753 14.5863 41.7038 14.7173 41.6084 14.83L36.5184 21C36.4212 21.1181 36.3003 21.2144 36.1634 21.2826C36.0265 21.3509 35.8768 21.3895 35.724 21.3961C35.5713 21.4027 35.4188 21.3771 35.2765 21.3209C35.1343 21.2647 35.0055 21.1793 34.8984 21.07L31.1784 17.53L26.3984 22.83L31.1684 27.64C31.2979 27.7682 31.3925 27.9274 31.4433 28.1024C31.494 28.2774 31.4992 28.4624 31.4584 28.64L28.7284 41.64C28.6994 41.7872 28.6404 41.9269 28.5549 42.0503C28.4694 42.1736 28.3594 42.278 28.2318 42.3568C28.1041 42.4357 27.9615 42.4873 27.813 42.5085C27.6644 42.5297 27.5131 42.52 27.3684 42.48L25.9984 42.1C25.7262 42.0312 25.4915 41.8591 25.344 41.6202C25.1965 41.3812 25.1479 41.0942 25.2084 40.82L27.5284 30.21L22.5284 25.21L17.5884 30.76C17.5136 30.8395 17.4297 30.91 17.3384 30.97C17.0758 31.1679 16.7651 31.2921 16.4384 31.33H7.29844C6.99516 31.33 6.70416 31.2102 6.48878 30.9967C6.2734 30.7832 6.15107 30.4933 6.14844 30.19V29.06C6.16299 28.7597 6.28883 28.4756 6.50142 28.263C6.71401 28.0504 6.99814 27.9246 7.29844 27.91H14.7684L25.6784 14.7H22.2284L17.6384 20.44C17.4603 20.6668 17.2053 20.8205 16.9215 20.8721C16.6378 20.9237 16.345 20.8696 16.0984 20.72L15.4984 20.26C15.3851 20.1706 15.2909 20.0594 15.2213 19.9329C15.1517 19.8065 15.1082 19.6674 15.0932 19.5238C15.0783 19.3802 15.0923 19.2351 15.1345 19.0971C15.1766 18.959 15.2459 18.8308 15.3384 18.72L20.6184 12.26C20.7193 12.1297 20.8479 12.0236 20.995 11.9492C21.142 11.8748 21.3037 11.8341 21.4684 11.83V11.77Z" stroke="#55E9FF" stroke-width="2" stroke-linecap="round" stroke-linejoin="round"/>
</svg>
