<svg width="48" height="48" viewBox="0 0 48 48" fill="none" xmlns="http://www.w3.org/2000/svg">
<g clip-path="url(#clip0_1_8966)">
<mask id="mask0_1_8966" style="mask-type:luminance" maskUnits="userSpaceOnUse" x="0" y="0" width="48" height="48">
<path d="M48 0H0V48H48V0Z" fill="white"/>
</mask>
<g mask="url(#mask0_1_8966)">
<path d="M28 45.4998H20C9.14 45.4998 4.5 40.8598 4.5 29.9998V17.9998C4.5 7.13976 9.14 2.49976 20 2.49976H28C38.86 2.49976 43.5 7.13976 43.5 17.9998V29.9998C43.5 40.8598 38.86 45.4998 28 45.4998ZM20 5.49976C10.78 5.49976 7.5 8.77976 7.5 17.9998V29.9998C7.5 39.2198 10.78 42.4998 20 42.4998H28C37.22 42.4998 40.5 39.2198 40.5 29.9998V17.9998C40.5 8.77976 37.22 5.49976 28 5.49976H20Z" fill="#32EA6E"/>
<path d="M30.1392 25.0787C29.7792 25.0787 29.4192 24.9387 29.1392 24.6987C26.2192 22.0987 21.7792 22.0987 18.8593 24.6987C18.5392 24.9987 18.0993 25.1187 17.6393 25.0587C17.1993 24.9987 16.8192 24.7387 16.5792 24.3587L12.2192 17.3587C11.8392 16.7387 11.9593 15.9387 12.4993 15.4387C19.0593 9.61873 28.9392 9.61873 35.4992 15.4387C36.0392 15.9187 36.1592 16.7387 35.7792 17.3587L31.4192 24.3587C31.1792 24.7387 30.7992 24.9787 30.3592 25.0587C30.2792 25.0587 30.1992 25.0787 30.1392 25.0787ZM23.9992 19.7387C25.9992 19.7387 27.9792 20.2987 29.7192 21.3987L32.5192 16.8987C27.4592 13.1387 20.5192 13.1387 15.4593 16.8987L18.2592 21.3987C20.0192 20.2787 21.9992 19.7387 23.9992 19.7387Z" fill="#32EA6E"/>
</g>
</g>
<defs>
<clipPath id="clip0_1_8966">
<rect width="48" height="48" fill="white"/>
</clipPath>
</defs>
</svg>
