<svg width="48" height="48" viewBox="0 0 48 48" fill="none" xmlns="http://www.w3.org/2000/svg">
<path fill-rule="evenodd" clip-rule="evenodd" d="M33.0012 22.0004C31.4489 21.9999 29.9405 22.5153 28.7132 23.4657C27.4858 24.4161 26.6092 25.7474 26.2212 27.2504L24.2852 26.7504C24.7967 24.7678 25.969 23.0189 27.6085 21.7924C29.248 20.5659 31.2567 19.9351 33.303 20.0041C35.3494 20.0731 37.311 20.8378 38.8642 22.172C40.4173 23.5062 41.4691 25.33 41.846 27.3426C42.2228 29.3551 41.9022 31.436 40.937 33.2417C39.9718 35.0474 38.4197 36.47 36.537 37.2748C34.6542 38.0795 32.5534 38.2182 30.5812 37.668C28.609 37.1178 26.8834 35.9115 25.6892 34.2484L27.3132 33.0814C28.0124 34.0559 28.9503 34.8343 30.037 35.3421C31.1236 35.8499 32.3225 36.07 33.5186 35.9812C34.7147 35.8924 35.868 35.4978 36.8677 34.8351C37.8675 34.1725 38.6802 33.2641 39.2279 32.197C39.7757 31.13 40.04 29.9401 39.9957 28.7415C39.9513 27.5429 39.5997 26.3758 38.9746 25.3521C38.3495 24.3285 37.4718 23.4827 36.4258 22.8957C35.3798 22.3088 34.2006 22.0005 33.0012 22.0004Z" fill="#32EA6E"/>
<path fill-rule="evenodd" clip-rule="evenodd" d="M32.58 28H14.02C13.4921 28 12.9693 28.104 12.4816 28.306C11.9939 28.508 11.5507 28.8041 11.1774 29.1774C10.8041 29.5507 10.508 29.9939 10.306 30.4816C10.104 30.9693 10 31.4921 10 32.02C10 34.69 12.556 36.618 15.124 35.885L32.97 30.785C33.299 30.6907 33.5829 30.4807 33.7693 30.1937C33.9558 29.9067 34.0324 29.562 33.9849 29.2231C33.9374 28.8841 33.7692 28.5737 33.511 28.349C33.2529 28.1243 32.9223 28.0003 32.58 28ZM14.02 26C12.4234 26 10.8922 26.6342 9.76322 27.7632C8.63425 28.8922 8 30.4234 8 32.02C8 36.019 11.828 38.906 15.673 37.808L33.519 32.708C34.3117 32.4811 34.9958 31.9755 35.4453 31.2842C35.8947 30.5929 36.0793 29.7625 35.965 28.9459C35.8507 28.1293 35.4452 27.3815 34.8232 26.8402C34.2012 26.2988 33.4046 26.0005 32.58 26H14.02ZM35.4 36.2C35.6122 36.0409 35.8789 35.9725 36.1414 36.0101C36.404 36.0476 36.6409 36.1878 36.8 36.4L39.5 40H41C41.2652 40 41.5196 40.1054 41.7071 40.2929C41.8946 40.4804 42 40.7348 42 41C42 41.2652 41.8946 41.5196 41.7071 41.7071C41.5196 41.8946 41.2652 42 41 42H36C35.7348 42 35.4804 41.8946 35.2929 41.7071C35.1054 41.5196 35 41.2652 35 41C35 40.7348 35.1054 40.4804 35.2929 40.2929C35.4804 40.1054 35.7348 40 36 40H37L35.2 37.6C35.0409 37.3878 34.9725 37.1211 35.0101 36.8586C35.0476 36.596 35.1878 36.3591 35.4 36.2Z" fill="#32EA6E"/>
<path fill-rule="evenodd" clip-rule="evenodd" d="M13.6 36.2C13.8122 36.3591 13.9524 36.596 13.99 36.8586C14.0275 37.1211 13.9591 37.3878 13.8 37.6L10.8 41.6C10.6409 41.8122 10.404 41.9524 10.1414 41.99C9.87887 42.0275 9.61218 41.9591 9.4 41.8C9.18783 41.6409 9.04756 41.404 9.01005 41.1414C8.97255 40.8789 9.04087 40.6122 9.2 40.4L12.2 36.4C12.3591 36.1878 12.596 36.0476 12.8586 36.0101C13.1211 35.9725 13.3878 36.0409 13.6 36.2Z" fill="#32EA6E"/>
<path d="M7 41.0002C7 40.735 7.10536 40.4807 7.29289 40.2931C7.48043 40.1056 7.73478 40.0002 8 40.0002H13C13.2652 40.0002 13.5196 40.1056 13.7071 40.2931C13.8946 40.4807 14 40.735 14 41.0002C14 41.2655 13.8946 41.5198 13.7071 41.7074C13.5196 41.8949 13.2652 42.0002 13 42.0002H8C7.73478 42.0002 7.48043 41.8949 7.29289 41.7074C7.10536 41.5198 7 41.2655 7 41.0002ZM14 32.0002C14 31.735 14.1054 31.4807 14.2929 31.2931C14.4804 31.1056 14.7348 31.0002 15 31.0002H19C19.2652 31.0002 19.5196 31.1056 19.7071 31.2931C19.8946 31.4807 20 31.735 20 32.0002C20 32.2655 19.8946 32.5198 19.7071 32.7074C19.5196 32.8949 19.2652 33.0002 19 33.0002H15C14.7348 33.0002 14.4804 32.8949 14.2929 32.7074C14.1054 32.5198 14 32.2655 14 32.0002Z" fill="#32EA6E"/>
<path d="M16 32C16 32.5304 15.7893 33.0391 15.4142 33.4142C15.0391 33.7893 14.5304 34 14 34C13.4696 34 12.9609 33.7893 12.5858 33.4142C12.2107 33.0391 12 32.5304 12 32C12 31.4696 12.2107 30.9609 12.5858 30.5858C12.9609 30.2107 13.4696 30 14 30C14.5304 30 15.0391 30.2107 15.4142 30.5858C15.7893 30.9609 16 31.4696 16 32Z" fill="#32EA6E"/>
<path fill-rule="evenodd" clip-rule="evenodd" d="M10.7013 18.0461C10.9543 17.9672 11.2283 17.992 11.4631 18.115C11.6978 18.238 11.8742 18.4492 11.9533 18.7021L14.4533 26.7021C14.5225 26.9522 14.4918 27.2195 14.3676 27.4473C14.2433 27.6752 14.0354 27.8459 13.7877 27.9232C13.54 28.0006 13.2719 27.9787 13.04 27.862C12.8082 27.7453 12.6308 27.5431 12.5453 27.2981L10.0453 19.2981C9.96644 19.0451 9.99122 18.7711 10.1142 18.5363C10.2372 18.3016 10.4484 18.1252 10.7013 18.0461ZM35.3423 6.06008C35.4657 6.10516 35.579 6.1741 35.6758 6.26299C35.7725 6.35187 35.8508 6.45894 35.9062 6.57809C35.9615 6.69724 35.9928 6.82613 35.9984 6.95739C36.0039 7.08865 35.9835 7.21971 35.9383 7.34308L34.9383 10.0811C34.8898 10.2142 34.8135 10.3354 34.7145 10.4368C34.6156 10.5381 34.4962 10.6173 34.3643 10.6691L30.7763 12.0741L33.9373 20.6541C33.986 20.778 34.0094 20.9103 34.0063 21.0433C34.0032 21.1764 33.9735 21.3075 33.9191 21.4289C33.8646 21.5504 33.7865 21.6597 33.6892 21.7505C33.5919 21.8414 33.4775 21.9119 33.3527 21.958C33.2278 22.004 33.095 22.0247 32.962 22.0188C32.8291 22.0128 32.6987 21.9804 32.5784 21.9234C32.4581 21.8665 32.3504 21.786 32.2616 21.6869C32.1729 21.5878 32.1048 21.4719 32.0613 21.3461L28.5613 11.8461C28.4708 11.6006 28.48 11.3294 28.5872 11.0906C28.6943 10.8519 28.8907 10.6646 29.1343 10.5691L33.2143 8.97108L34.0603 6.65708C34.1514 6.4081 34.3375 6.20545 34.5779 6.09369C34.8183 5.98193 35.0933 5.9692 35.3423 6.06008Z" fill="#32EA6E"/>
<path fill-rule="evenodd" clip-rule="evenodd" d="M13.4381 16.7538L8.93509 16.3038C8.82065 16.2927 8.70514 16.3049 8.59555 16.3397C8.48596 16.3745 8.38457 16.4311 8.29751 16.5062C8.21045 16.5813 8.13954 16.6733 8.08906 16.7766C8.03858 16.88 8.00959 16.9924 8.00383 17.1073C7.99808 17.2221 8.01568 17.3369 8.05558 17.4447C8.09547 17.5526 8.15683 17.6512 8.23595 17.7346C8.31506 17.8181 8.41027 17.8846 8.51584 17.9302C8.6214 17.9758 8.73511 17.9994 8.85009 17.9998H13.3751C13.5341 17.998 13.6865 17.9356 13.8011 17.8253C13.9157 17.7151 13.984 17.5653 13.9921 17.4064C14.0001 17.2476 13.9473 17.0916 13.8443 16.9704C13.7414 16.8491 13.5961 16.7717 13.4381 16.7538ZM9.13409 14.3138C8.7499 14.2756 8.36196 14.3158 7.99379 14.4321C7.62563 14.5483 7.28493 14.7382 6.99235 14.9901C6.69978 15.242 6.46145 15.5507 6.29181 15.8975C6.12217 16.2444 6.02476 16.622 6.0055 17.0076C5.98624 17.3932 6.04553 17.7787 6.17977 18.1407C6.314 18.5027 6.52039 18.8337 6.7864 19.1135C7.05242 19.3933 7.37251 19.6161 7.72726 19.7685C8.082 19.9209 8.46401 19.9996 8.85009 19.9998H13.3751C14.047 19.9974 14.6924 19.7373 15.1783 19.2733C15.6643 18.8093 15.9538 18.1766 15.9873 17.5055C16.0207 16.8344 15.7955 16.1761 15.3582 15.666C14.9208 15.156 14.3044 14.8331 13.6361 14.7638L9.13409 14.3138Z" fill="#32EA6E"/>
</svg>
