<svg width="48" height="48" viewBox="0 0 48 48" fill="none" xmlns="http://www.w3.org/2000/svg">
<g clip-path="url(#clip0_1_9083)">
<mask id="mask0_1_9083" style="mask-type:luminance" maskUnits="userSpaceOnUse" x="0" y="0" width="48" height="48">
<path d="M48 0H0V48H48V0Z" fill="white"/>
</mask>
<g mask="url(#mask0_1_9083)">
<path d="M38.28 40.5C37.9 40.5 37.52 40.36 37.22 40.08C36.62 39.5 36.62 38.56 37.2 37.96C40.62 34.48 42.5 29.88 42.5 25C42.5 14.8 34.2 6.5 24 6.5C13.8 6.5 5.5 14.8 5.5 25C5.5 29.86 7.36 34.44 10.76 37.92C11.34 38.52 11.32 39.46 10.74 40.04C10.14 40.62 9.2 40.6 8.62 40.02C4.68 35.98 2.5 30.64 2.5 25C2.5 13.14 12.14 3.5 24 3.5C35.86 3.5 45.5 13.14 45.5 25C45.5 30.66 43.32 36.02 39.34 40.06C39.06 40.36 38.66 40.5 38.28 40.5Z" fill="#32EA6E"/>
<path d="M24.0002 44.0005C28.286 44.0005 31.7602 40.5263 31.7602 36.2405C31.7602 31.9549 28.286 28.4805 24.0002 28.4805C19.7145 28.4805 16.2402 31.9549 16.2402 36.2405C16.2402 40.5263 19.7145 44.0005 24.0002 44.0005Z" fill="#32EA6E"/>
<path d="M32 17C29.8 17 28 18.8 28 21V22.5C28 23.88 29.12 25 30.5 25H32C34.2 25 36 23.2 36 21C36 18.8 34.2 17 32 17Z" fill="#32EA6E"/>
</g>
</g>
<defs>
<clipPath id="clip0_1_9083">
<rect width="48" height="48" fill="white"/>
</clipPath>
</defs>
</svg>
