<svg width="48" height="48" viewBox="0 0 48 48" fill="none" xmlns="http://www.w3.org/2000/svg">
<path d="M33.1682 12.1147C37.8374 12.1147 39.0922 18.4888 37.0846 22.6844C36.1866 24.5612 34.633 26.2102 33.3892 27.8714C32.1964 29.4644 31.6 30.2608 30.816 30.8182C29.0678 32.0608 27.044 32 24.9794 32H22.9166C17.8386 32 15.2995 32 13.6219 30.5808C11.9443 29.1618 11.5336 26.7192 10.7122 21.834C10.2606 19.148 9.94266 16.4644 10.0087 13.8627C10.1296 9.09808 13.7776 5.08546 18.7048 4.29748C21.052 3.92212 23.9422 3.88502 26.2908 4.28364C30.4844 4.9955 33.4414 8.60838 33.1482 12.6622C32.9694 15.1344 31.9662 17.6795 31.34 20.0688" stroke="#55E9FF" stroke-width="3" stroke-linecap="round"/>
<path d="M14.0078 31V36C14.0078 39.7712 14.0078 41.6568 15.1794 42.8284C16.351 44 18.2366 44 22.0078 44H24.0078C27.779 44 29.6646 44 30.8362 42.8284C32.0078 41.6568 32.0078 39.7712 32.0078 36V30" stroke="#55E9FF" stroke-width="3" stroke-linecap="round"/>
<path d="M14.0078 38H20.0078" stroke="#55E9FF" stroke-width="3" stroke-linecap="round"/>
</svg>
