<svg width="48" height="48" viewBox="0 0 48 48" fill="none" xmlns="http://www.w3.org/2000/svg">
<path d="M24.0036 28.0068V24.7242M24.0036 28.0068C20.6712 28.0068 17.3388 27.642 14.0064 26.913M24.0036 28.0068C27.3368 28.0068 30.6702 27.6424 34.0036 26.913M14.0064 26.913C11.4566 26.3552 8.90686 25.5836 6.35708 24.599C5.33796 24.2052 4.8284 24.0084 4.47876 23.5576C3.89864 22.8098 4.00348 21.7682 4.00348 20.8774C4.00348 18.4114 4.00348 15.1761 4.60508 14.5322C5.744 13.3132 7.91818 14.4352 9.18274 14.8454C19.0632 18.0506 28.9438 18.0506 38.8244 14.8454C40.0888 14.4352 42.263 13.3132 43.402 14.5322C44.0036 15.1761 44.0036 18.4114 44.0036 20.8774C44.0036 22.1142 44.0036 22.7326 43.7316 23.2434C43.3136 24.0282 42.4308 24.2974 41.65 24.599C39.1012 25.5832 36.5524 26.3552 34.0036 26.913M14.0064 26.913L14.0035 23.6298M34.0036 26.913V23.6298" stroke="#55E9FF" stroke-width="3" stroke-linecap="round" stroke-linejoin="round"/>
<path d="M38.004 38.0193C28.6706 40.6917 19.3372 40.6917 10.0039 38.0193" stroke="#55E9FF" stroke-width="3" stroke-linecap="round" stroke-linejoin="round"/>
<path d="M38.382 5.99609C37.2282 8.61875 36.1678 13.1148 36.1678 15.1754M9.63087 5.99609C10.7847 8.61875 11.8451 13.1148 11.8451 15.1754M10.7983 31.0214C9.92057 33.783 7.60101 39.2436 8.00851 42.0052M37.2284 31.0214C38.1062 33.783 40.4258 39.2436 40.0182 42.0052" stroke="#55E9FF" stroke-width="3" stroke-linecap="round" stroke-linejoin="round"/>
</svg>
