<svg width="18" height="18" viewBox="0 0 18 18" fill="none" xmlns="http://www.w3.org/2000/svg">
<g clip-path="url(#clip0_1_7440)">
<mask id="mask0_1_7440" style="mask-type:luminance" maskUnits="userSpaceOnUse" x="0" y="0" width="18" height="18">
<path d="M18 0H0V18H18V0Z" fill="white"/>
</mask>
<g mask="url(#mask0_1_7440)">
<path d="M8.97659 17.0625C4.53656 17.0625 0.914062 13.4475 0.914062 9C0.914062 4.5525 4.53656 0.9375 8.97659 0.9375C13.4166 0.9375 17.0391 4.5525 17.0391 9C17.0391 13.4475 13.4241 17.0625 8.97659 17.0625ZM8.97659 2.0625C5.15156 2.0625 2.03906 5.175 2.03906 9C2.03906 12.825 5.15156 15.9375 8.97659 15.9375C12.8016 15.9375 15.9141 12.825 15.9141 9C15.9141 5.175 12.8016 2.0625 8.97659 2.0625Z" fill="#2F2C2C"/>
<path d="M7.9197 12.7429C7.5897 12.7429 7.27469 12.6604 6.99719 12.5029C6.35219 12.1279 5.99219 11.3929 5.99219 10.4329V7.92038C5.99219 6.96036 6.34469 6.22536 6.98969 5.85036C7.63469 5.47536 8.45219 5.53536 9.28469 6.01536L11.4597 7.26786C12.2922 7.74788 12.7497 8.42288 12.7497 9.17288C12.7497 9.91538 12.2922 10.5979 11.4597 11.0779L9.28469 12.3304C8.81969 12.6079 8.3472 12.7429 7.9197 12.7429ZM7.9197 6.72786C7.7847 6.72786 7.65719 6.75786 7.55969 6.81786C7.27469 6.98286 7.11719 7.38036 7.11719 7.92038V10.4329C7.11719 10.9654 7.27469 11.3704 7.55969 11.5279C7.83719 11.6929 8.2647 11.6254 8.7297 11.3629L10.9047 10.1104C11.3697 9.84038 11.6322 9.50288 11.6322 9.18038C11.6322 8.85788 11.3622 8.52038 10.9047 8.25038L8.7297 6.99786C8.4297 6.81786 8.1522 6.72786 7.9197 6.72786Z" fill="#2F2C2C"/>
</g>
</g>
<defs>
<clipPath id="clip0_1_7440">
<rect width="18" height="18" fill="white"/>
</clipPath>
</defs>
</svg>
