<svg width="48" height="48" viewBox="0 0 48 48" fill="none" xmlns="http://www.w3.org/2000/svg">
<path d="M34.11 28.6875C33.7349 30.7838 32.7265 32.7148 31.2207 34.2207C29.7148 35.7265 27.7838 36.7349 25.6875 37.11C25.6254 37.1195 25.5628 37.1245 25.5 37.125C25.2171 37.1262 24.9443 37.0207 24.7357 36.8296C24.5271 36.6386 24.3981 36.376 24.3745 36.0941C24.3508 35.8122 24.4342 35.5318 24.6081 35.3087C24.7819 35.0855 25.0334 34.9361 25.3125 34.89C28.5712 34.3425 31.3369 31.575 31.89 28.3125C31.9397 28.0181 32.1044 27.7556 32.3477 27.5826C32.4682 27.4969 32.6044 27.4358 32.7484 27.4028C32.8925 27.3697 33.0417 27.3654 33.1875 27.39C33.3333 27.4147 33.4728 27.4678 33.598 27.5463C33.7233 27.6248 33.8318 27.7272 33.9175 27.8477C34.0031 27.9682 34.0642 28.1044 34.0973 28.2485C34.1303 28.3926 34.1346 28.5418 34.11 28.6875ZM40.125 27C40.125 31.2767 38.4261 35.3781 35.4021 38.4021C32.3781 41.4262 28.2766 43.125 24 43.125C19.7234 43.125 15.6219 41.4262 12.5979 38.4021C9.57388 35.3781 7.875 31.2767 7.875 27C7.875 21.8494 9.90938 16.5732 13.9219 11.3175C14.0182 11.1895 14.1408 11.0836 14.2814 11.0068C14.422 10.93 14.5774 10.8841 14.7372 10.8722C14.8969 10.8604 15.0574 10.8827 15.2078 10.9378C15.3582 10.993 15.4951 11.0796 15.6094 11.1919L20.5481 15.9844L24.8775 4.11379C24.9393 3.9444 25.0409 3.79234 25.1737 3.67042C25.3066 3.5485 25.4668 3.4603 25.6408 3.41325C25.8149 3.3662 25.9977 3.36167 26.1739 3.40005C26.35 3.43843 26.5144 3.5186 26.6531 3.63379C30.6975 6.99941 40.125 16.0125 40.125 27ZM37.875 27C37.875 17.925 30.6281 10.155 26.4244 6.41254L22.0575 18.3863C21.9933 18.5628 21.8859 18.7203 21.7451 18.8447C21.6043 18.969 21.4347 19.0561 21.2516 19.098C21.0686 19.14 20.8779 19.1354 20.6971 19.0848C20.5162 19.0342 20.3509 18.9391 20.2162 18.8082L14.9662 13.7044C11.7506 18.2119 10.125 22.6875 10.125 27C10.125 30.6799 11.5868 34.2091 14.1889 36.8111C16.791 39.4132 20.3201 40.875 24 40.875C27.6799 40.875 31.209 39.4132 33.8111 36.8111C36.4132 34.2091 37.875 30.6799 37.875 27Z" fill="#32EA6E"/>
</svg>
