<svg width="16" height="16" viewBox="0 0 16 16" fill="none" xmlns="http://www.w3.org/2000/svg">
<mask id="mask0_1_8199" style="mask-type:luminance" maskUnits="userSpaceOnUse" x="0" y="0" width="16" height="16">
<path d="M16 0H0V16H16V0Z" fill="white"/>
</mask>
<g mask="url(#mask0_1_8199)">
<path d="M7.99935 8.49992C5.88602 8.49992 4.16602 6.77992 4.16602 4.66658C4.16602 2.55325 5.88602 0.833252 7.99935 0.833252C10.1127 0.833252 11.8327 2.55325 11.8327 4.66658C11.8327 6.77992 10.1127 8.49992 7.99935 8.49992ZM7.99935 1.83325C6.43935 1.83325 5.16602 3.10659 5.16602 4.66658C5.16602 6.22658 6.43935 7.49992 7.99935 7.49992C9.55935 7.49992 10.8327 6.22658 10.8327 4.66658C10.8327 3.10659 9.55935 1.83325 7.99935 1.83325Z" fill="#4E4949"/>
<path d="M13.7267 15.1667C13.4534 15.1667 13.2267 14.94 13.2267 14.6667C13.2267 12.3667 10.8801 10.5 8.00013 10.5C5.1201 10.5 2.77344 12.3667 2.77344 14.6667C2.77344 14.94 2.54677 15.1667 2.27344 15.1667C2.0001 15.1667 1.77344 14.94 1.77344 14.6667C1.77344 11.82 4.56676 9.5 8.00013 9.5C11.4335 9.5 14.2267 11.82 14.2267 14.6667C14.2267 14.94 14.0001 15.1667 13.7267 15.1667Z" fill="#4E4949"/>
</g>
</svg>
