<svg width="48" height="48" viewBox="0 0 48 48" fill="none" xmlns="http://www.w3.org/2000/svg">
<path d="M21.0108 30.0204L34.28 20.9978C34.6546 20.7196 34.9888 20.391 35.2726 20.0224C36.2434 18.7608 36.2242 17.011 35.6088 15.5473C34.2396 12.2903 30.9904 10 27.2 10C25.3288 10 23.5896 10.5582 22.1434 11.5152L7.98438 21.5134" stroke="#32EA6E" stroke-width="3" stroke-linecap="round" stroke-linejoin="round"/>
<path d="M11.9903 27.0132C11.9903 28.4052 12.7273 31.1718 16.0716 31.931C18.0835 32.3878 23.9452 30.461 21.0772 24.877C18.2094 19.2932 11.303 19.264 8.49364 21.135C6.7768 22.1778 3.44264 25.4326 4.07474 29.7592C4.2991 32.3806 6.3632 37.6992 12.8248 38.0034H32.6074C34.451 37.8572 34.832 37.5898 36.2362 36.5124C38.1252 34.816 41.2802 31.697 43.113 29.6436C43.509 29.2 43.9364 28.7434 43.9912 28.1514C44.2826 24.998 39.4976 26.3638 36.0314 25.988" stroke="#32EA6E" stroke-width="3" stroke-linecap="round" stroke-linejoin="round"/>
</svg>
