<svg width="48" height="48" viewBox="0 0 48 48" fill="none" xmlns="http://www.w3.org/2000/svg">
<path d="M4.03597 40.6102C6.29325 43.8392 16.119 46.3742 20.7595 40.329C25.7789 42.7298 34.0579 41.9856 40.7983 38.2268C41.7357 37.7042 42.6225 37.0444 43.1655 36.1186C44.3915 34.0286 44.4205 31.1288 42.1839 26.8502C38.4549 17.5414 31.7481 9.37025 29.0403 6.08423C28.4843 5.57729 24.9375 4.85735 22.7745 4.16557C21.8191 3.86953 20.0401 3.67327 17.9124 6.47723C16.9036 7.80657 12.3213 11.0714 18.1355 13.2669C19.0362 13.4961 19.6984 13.9188 23.8077 13.1681C24.3429 13.0752 25.6791 13.1681 26.6207 14.8208L28.5873 17.6332C28.7703 17.895 28.8891 18.1963 28.9255 18.5136C29.2701 21.5114 29.2589 25.2646 30.9303 27.1652C28.3487 25.2984 21.6023 23.0812 16.5191 29.3902M4.00391 25.88C6.42031 23.582 13.4241 19.9518 20.8359 25.0432" stroke="#55E9FF" stroke-width="3" stroke-linecap="round" stroke-linejoin="round"/>
</svg>
