<svg width="48" height="48" viewBox="0 0 48 48" fill="none" xmlns="http://www.w3.org/2000/svg">
<path fill-rule="evenodd" clip-rule="evenodd" d="M16.7335 6.98396C17.732 7.77612 19.0778 8.8829 20.5446 10.1986C21.9484 11.4576 23.489 12.9307 24.9498 14.5208C27.7564 12.1377 29.9224 9.44992 31.0388 6.88974C29.4946 6.25576 27.8694 5.8319 26.2108 5.63084C23.0628 5.24926 19.7969 5.67096 16.7335 6.98396ZM33.7166 8.25214C32.3604 11.27 29.9132 14.2386 26.9056 16.7948C27.8076 17.9238 28.6278 19.0855 29.3002 20.25C30.1194 21.669 30.8476 23.3154 31.489 25.0426C35.1136 23.6764 38.9236 23 42.4948 23.4322C42.4068 20.4728 41.605 17.4927 40.0212 14.7494C38.4326 11.9981 36.2446 9.809 33.7166 8.25214ZM42.3394 26.437C39.2674 26.0206 35.8306 26.5982 32.4522 27.885C33.0338 29.7606 33.521 31.6384 33.919 33.3438C34.4124 35.4588 34.778 37.3514 35.0204 38.7154C35.028 38.7588 35.0356 38.8016 35.043 38.844C37.7416 36.842 39.76 34.2074 41.0128 31.2688C41.6708 29.7252 42.1174 28.0988 42.3394 26.437ZM32.2878 40.5396C32.2324 40.1978 32.1586 39.7586 32.0666 39.2402C31.8312 37.915 31.476 36.0766 30.9974 34.0256C30.6284 32.4446 30.1916 30.761 29.6872 29.1014C28.87 29.5094 28.0634 29.9558 27.2736 30.4364C22.45 33.3714 18.5904 37.3762 16.962 41.1094C21.767 43.082 27.3506 43.0192 32.2878 40.5396ZM14.2842 39.7472C16.2859 35.293 20.6648 30.946 25.7142 27.8736C26.6864 27.282 27.6952 26.7304 28.7298 26.2298C28.1256 24.5846 27.4494 23.0446 26.702 21.75C26.1058 20.7174 25.3658 19.6708 24.5394 18.6389C23.8476 19.1332 23.1364 19.6048 22.411 20.0502C17.2718 23.2054 11.0952 25.2442 5.5048 24.5676C5.59312 27.5264 6.3945 30.5064 7.9782 33.2494C9.56696 36.0012 11.7559 38.1904 14.2842 39.7472ZM5.65992 21.5628C6.34996 16.3973 9.2064 11.5753 13.8437 8.53572C14.0925 8.72554 14.408 8.96948 14.7768 9.26116C15.7475 10.0288 17.0835 11.1241 18.5416 12.4319C19.8612 13.6155 21.257 14.9523 22.5656 16.3611C22.007 16.7529 21.4316 17.1312 20.8414 17.4935C15.9455 20.4994 10.374 22.2024 5.65992 21.5628ZM13.2497 5.37986C17.4398 2.96068 22.11 2.11182 26.5718 2.65264C33.0512 3.43804 39.1016 7.15694 42.6192 13.2494C46.1366 19.3419 46.3322 26.4412 43.7726 32.4454C42.01 36.5796 38.9398 40.1998 34.7496 42.619C24.4664 48.556 11.3172 45.0328 5.38014 34.7494C-0.556924 24.4662 2.96638 11.3169 13.2497 5.37986Z" fill="#55E9FF"/>
</svg>
