<svg width="48" height="48" viewBox="0 0 48 48" fill="none" xmlns="http://www.w3.org/2000/svg">
<g clip-path="url(#clip0_1_8814)">
<path fill-rule="evenodd" clip-rule="evenodd" d="M11.9478 7.80407C12.2518 7.27807 12.8438 6.82007 13.3798 6.82007C14.3398 6.82007 15.5738 7.78007 16.3198 8.36207C17.4378 9.23207 18.7418 10.0581 20.1418 10.3461C21.1778 10.5561 22.4138 10.3981 23.5058 10.1121C23.6858 10.0661 25.2338 9.52407 25.2338 9.52407C27.3778 8.53407 28.3298 11.3481 29.1758 12.7341C29.7558 13.6801 30.4858 14.8081 31.3158 15.9461C31.6473 15.9154 31.9811 15.968 32.2871 16.0991C32.593 16.2301 32.8615 16.4354 33.068 16.6964C33.2746 16.9574 33.4128 17.2658 33.47 17.5937C33.5273 17.9215 33.5018 18.2585 33.3958 18.5741C34.0118 19.3281 34.5958 20.0501 35.1498 20.7461C35.5336 20.6378 35.9409 20.6466 36.3196 20.7715C36.6983 20.8964 37.031 21.1316 37.275 21.447C37.519 21.7624 37.6631 22.1435 37.6889 22.5414C37.7147 22.9393 37.621 23.3358 37.4198 23.6801C39.5638 26.5461 41.0398 28.8761 41.8918 30.9501C42.6118 32.7101 42.9198 34.3561 42.7858 36.0341C42.6518 37.6881 42.1018 39.2301 41.3318 40.7861C40.2878 42.8961 37.7278 43.4741 35.8538 42.3921L6.40983 25.3921C5.49114 24.8616 4.82079 23.988 4.54623 22.9633C4.27168 21.9386 4.41542 20.8468 4.94583 19.9281L11.9478 7.80407ZM11.4118 16.7321L14.2498 11.8181C15.7778 12.9101 17.4838 13.8841 19.3398 14.2641C21.2478 14.6541 23.1778 14.3321 24.5138 13.9841C25.3358 13.7701 25.3218 14.0981 25.7638 14.8201C26.2678 15.6461 26.8918 16.6181 27.6038 17.6321L27.3818 17.7421C27.1447 17.8574 26.9327 18.0185 26.7581 18.2161C26.5835 18.4137 26.4496 18.6438 26.3643 18.8933C26.279 19.1428 26.2438 19.4067 26.2609 19.6699C26.2779 19.933 26.3468 20.1902 26.4636 20.4266C26.5805 20.663 26.7429 20.874 26.9415 21.0474C27.1402 21.2208 27.3712 21.3532 27.6212 21.4369C27.8712 21.5207 28.1354 21.5542 28.3984 21.5356C28.6614 21.5169 28.9182 21.4464 29.1538 21.3281L30.0998 20.8601C30.5758 21.4441 31.0278 22.0001 31.4598 22.5401C31.0196 22.8047 30.698 23.2286 30.5618 23.7238C30.4255 24.2191 30.4851 24.7478 30.7281 25.2004C30.9711 25.6529 31.3789 25.9947 31.867 26.1547C32.3551 26.3148 32.886 26.2809 33.3498 26.0601L33.9738 25.7521C36.1458 28.6261 37.4778 30.7261 38.1938 32.4681C38.7238 33.7621 38.8738 34.7761 38.7998 35.7141C38.7258 36.6461 38.4158 37.6421 37.8038 38.8981L8.41183 21.9281L9.41183 20.1961L18.0718 25.1961C18.5309 25.4571 19.0747 25.5259 19.5844 25.3876C20.094 25.2492 20.5283 24.9148 20.7924 24.4575C21.0565 24.0001 21.1289 23.4568 20.9939 22.9462C20.8589 22.4356 20.5274 21.9992 20.0718 21.7321L11.4118 16.7321Z" fill="black"/>
</g>
<defs>
<clipPath id="clip0_1_8814">
<rect width="48" height="48" fill="white" transform="matrix(-1 0 0 1 48 0)"/>
</clipPath>
</defs>
</svg>
