<svg width="28" height="28" viewBox="0 0 28 28" fill="none" xmlns="http://www.w3.org/2000/svg">
<path opacity="0.987" fill-rule="evenodd" clip-rule="evenodd" d="M12.8127 3.58628C13.9007 3.46473 14.5445 3.46473 15.7134 3.58628C17.7827 3.89255 19.7009 4.84903 21.1907 6.31741C20.184 7.26901 19.1905 8.2345 18.2105 9.21361C16.3337 7.62295 14.2388 7.2558 11.9259 8.11216C10.2292 8.89248 9.04768 10.157 8.38141 11.9057C7.29261 11.0951 6.21801 10.2657 5.15807 9.4177C5.08441 9.37893 5.00027 9.36473 4.91797 9.37718C6.60167 6.13084 9.23276 4.20003 12.8112 3.58478" fill="#F44336"/>
<path opacity="0.997" fill-rule="evenodd" clip-rule="evenodd" d="M4.91591 9.37734C5.00094 9.36434 5.08147 9.37784 5.15751 9.41786C6.21744 10.2658 7.29205 11.0953 8.38084 11.9059C8.20951 12.5873 8.10151 13.283 8.05821 13.9843C8.09522 14.6625 8.20277 15.3283 8.38084 15.9816L4.99694 18.6752C3.52333 15.5959 3.49632 12.4966 4.91591 9.37734Z" fill="#FFC107"/>
<path opacity="0.999" fill-rule="evenodd" clip-rule="evenodd" d="M21.0309 21.9375C19.9773 21.0083 18.8742 20.1366 17.7266 19.3264C18.877 18.5141 19.5753 17.3996 19.8214 15.983H14.1836V12.0679C17.4349 12.0409 20.6848 12.0684 23.9331 12.1504C24.5494 15.4968 23.8376 18.5141 21.7978 21.2022C21.5552 21.46 21.2983 21.7054 21.0309 21.9375Z" fill="#448AFF"/>
<path opacity="0.993" fill-rule="evenodd" clip-rule="evenodd" d="M8.38 15.9832C9.61051 19.0414 11.8664 20.469 15.1478 20.2659C16.0689 20.1593 16.9521 19.8375 17.7259 19.3265C18.8743 20.1389 19.9758 21.0092 21.0302 21.9376C19.3595 23.4389 17.2293 24.3297 14.9872 24.4647C14.4778 24.5054 13.966 24.5054 13.4566 24.4647C9.63702 24.0145 6.81685 22.0847 4.99609 18.6753L8.38 15.9832Z" fill="#43A047"/>
</svg>
