<svg width="48" height="48" viewBox="0 0 48 48" fill="none" xmlns="http://www.w3.org/2000/svg">
<g clip-path="url(#clip0_1_8837)">
<mask id="mask0_1_8837" style="mask-type:luminance" maskUnits="userSpaceOnUse" x="0" y="0" width="48" height="48">
<path d="M48 0H0V48H48V0Z" fill="white"/>
</mask>
<g mask="url(#mask0_1_8837)">
<path d="M38.7004 36.2801C37.9004 36.2801 37.2204 35.7201 37.0604 34.9401L36.6404 33.1001C36.4604 32.3201 35.8404 31.7001 35.0804 31.5201L33.2004 31.0801C32.4404 30.9201 31.9004 30.2401 31.9004 29.4401C31.9004 28.6401 32.4404 27.9401 33.2204 27.7801L35.0804 27.3601C35.8604 27.1801 36.4804 26.5601 36.6604 25.8001L37.1004 23.9201C37.2604 23.1601 37.9604 22.6201 38.7604 22.6201C39.5604 22.6201 40.2404 23.1801 40.4004 23.9601L40.8204 25.8001C41.0004 26.5801 41.6204 27.2001 42.3804 27.3801L44.2604 27.8201C45.0204 27.9801 45.5604 28.6601 45.5604 29.4601C45.5604 30.2601 45.0204 30.9401 44.2404 31.1201L42.3804 31.5401C41.6004 31.7201 40.9804 32.3401 40.8204 33.1001L40.3804 34.9801C40.2204 35.7401 39.5204 36.2801 38.7004 36.2801ZM37.5804 29.4401C38.0204 29.7601 38.4004 30.1401 38.7204 30.5801C39.0404 30.1401 39.4204 29.7601 39.8604 29.4401C39.4204 29.1201 39.0404 28.7401 38.7204 28.3001C38.4004 28.7401 38.0204 29.1201 37.5804 29.4401Z" fill="#32EA6E"/>
<path d="M32.5189 36.08C29.2589 36.08 25.3789 34.84 25.3789 28.94V17.64C25.3789 11.74 29.2589 10.5 32.5189 10.5C35.7789 10.5 39.6589 11.74 39.6589 17.64V19.16C39.6589 19.98 38.9789 20.66 38.1589 20.66C37.3389 20.66 36.6589 19.98 36.6589 19.16V17.64C36.6589 14.62 35.5389 13.5 32.5189 13.5C29.4989 13.5 28.3789 14.62 28.3789 17.64V28.94C28.3789 31.96 29.4989 33.08 32.5189 33.08C33.3389 33.08 34.0189 33.76 34.0189 34.58C34.0189 35.4 33.3389 36.08 32.5189 36.08Z" fill="#32EA6E"/>
<path d="M13.0189 36.08C9.75891 36.08 5.87891 34.84 5.87891 28.94V17.64C5.87891 11.74 9.75891 10.5 13.0189 10.5C16.2789 10.5 20.1589 11.74 20.1589 17.64V28.94C20.1589 34.84 16.2789 36.08 13.0189 36.08ZM13.0189 13.5C9.99891 13.5 8.87891 14.62 8.87891 17.64V28.94C8.87891 31.96 9.99891 33.08 13.0189 33.08C16.0389 33.08 17.1589 31.96 17.1589 28.94V17.64C17.1589 14.62 16.0389 13.5 13.0189 13.5Z" fill="#32EA6E"/>
<path d="M26.8601 24.8H18.6602C17.8402 24.8 17.1602 24.12 17.1602 23.3C17.1602 22.48 17.8402 21.8 18.6602 21.8H26.8601C27.6801 21.8 28.3601 22.48 28.3601 23.3C28.3601 24.12 27.6801 24.8 26.8601 24.8Z" fill="#32EA6E"/>
<path d="M42.5391 23.12C41.7191 23.12 41.0391 22.44 41.0391 21.62V18.6001C41.0391 17.7801 41.7191 17.1001 42.5391 17.1001C43.3591 17.1001 44.0391 17.7801 44.0391 18.6001V21.62C44.0391 22.44 43.3591 23.12 42.5391 23.12Z" fill="#32EA6E"/>
<path d="M3 29.5C2.18 29.5 1.5 28.82 1.5 28V18.5801C1.5 17.7601 2.18 17.0801 3 17.0801C3.82 17.0801 4.5 17.7601 4.5 18.5801V28C4.5 28.82 3.82 29.5 3 29.5Z" fill="#32EA6E"/>
</g>
</g>
<defs>
<clipPath id="clip0_1_8837">
<rect width="48" height="48" fill="white"/>
</clipPath>
</defs>
</svg>
