<svg width="48" height="48" viewBox="0 0 48 48" fill="none" xmlns="http://www.w3.org/2000/svg">
<g clip-path="url(#clip0_1_8821)">
<mask id="mask0_1_8821" style="mask-type:luminance" maskUnits="userSpaceOnUse" x="0" y="0" width="48" height="48">
<path d="M48 0H0V48H48V0Z" fill="white"/>
</mask>
<g mask="url(#mask0_1_8821)">
<path d="M19.9811 45.5012C19.5811 45.5012 19.2611 45.4212 19.0211 45.3212C18.2211 45.0212 16.8611 44.0412 16.8611 40.9412V28.0412H12.1811C9.50113 28.0412 8.54113 26.7812 8.20113 26.0412C7.86113 25.2812 7.56113 23.7412 9.32113 21.7212L24.4612 4.52123C26.5012 2.20123 28.1612 2.36123 28.9612 2.66123C29.7612 2.96123 31.1212 3.94123 31.1212 7.04123V19.9412H35.8012C38.4812 19.9412 39.4412 21.2012 39.7812 21.9412C40.1212 22.7012 40.4212 24.2412 38.6612 26.2612L23.5212 43.4612C22.1012 45.0812 20.8612 45.5012 19.9811 45.5012ZM27.8612 5.48123C27.8012 5.56123 27.3812 5.76123 26.7212 6.52123L11.5811 23.7212C11.0211 24.3612 10.9411 24.7612 10.9411 24.8412C10.9811 24.8612 11.3411 25.0612 12.1811 25.0612H18.3611C19.1811 25.0612 19.8611 25.7412 19.8611 26.5612V40.9612C19.8611 41.9612 20.0412 42.4012 20.1212 42.5212C20.1812 42.4412 20.6012 42.2412 21.2612 41.4812L36.4012 24.2812C36.9612 23.6412 37.0412 23.2412 37.0412 23.1612C37.0012 23.1412 36.6412 22.9412 35.8012 22.9412H29.6212C28.8012 22.9412 28.1212 22.2612 28.1212 21.4412V7.04123C28.1412 6.04123 27.9412 5.62123 27.8612 5.48123Z" fill="#55E9FF"/>
</g>
</g>
<defs>
<clipPath id="clip0_1_8821">
<rect width="48" height="48" fill="white"/>
</clipPath>
</defs>
</svg>
