<svg width="28" height="28" viewBox="0 0 28 28" fill="none" xmlns="http://www.w3.org/2000/svg">
<path d="M18.7414 24.1575C17.5982 25.2656 16.35 25.0907 15.1485 24.5657C13.877 24.0291 12.7105 24.0058 11.369 24.5657C9.68921 25.289 8.80265 25.079 7.79945 24.1575C2.10683 18.2899 2.94672 9.35432 9.40924 9.0277C10.984 9.10935 12.0806 9.89092 13.0021 9.96091C14.3786 9.68095 15.6968 8.87605 17.1666 8.98104C18.928 9.12102 20.2579 9.82093 21.1328 11.0808C17.4932 13.2622 18.3564 18.0566 21.6927 19.3981C21.0278 21.1478 20.1646 22.886 18.7297 24.1691L18.7414 24.1575ZM12.8855 8.95771C12.7105 6.35637 14.8219 4.20997 17.2483 4C17.5865 7.00962 14.5186 9.24934 12.8855 8.95771Z" fill="#0D0D0D"/>
</svg>
