<svg width="20" height="20" viewBox="0 0 20 20" fill="none" xmlns="http://www.w3.org/2000/svg">
<g clip-path="url(#clip0_1_2957)">
<mask id="mask0_1_2957" style="mask-type:luminance" maskUnits="userSpaceOnUse" x="0" y="0" width="20" height="20">
<path d="M20 0H0V20H20V0Z" fill="white"/>
</mask>
<g mask="url(#mask0_1_2957)">
<path d="M4.09961 16.9002L5.57462 18.0419C5.76628 18.2335 6.19128 18.3251 6.48294 18.3251H8.29128C8.86626 18.3251 9.48293 17.9002 9.62459 17.3252L10.7663 13.8501C11.0079 13.1834 10.5746 12.6084 9.85793 12.6084H7.94961C7.66628 12.6084 7.42461 12.3668 7.47461 12.0334L7.71628 10.5084C7.80795 10.0834 7.52461 9.6001 7.09961 9.45844C6.71628 9.31677 6.24128 9.50844 6.04962 9.79177L4.09961 12.7001" stroke="black" stroke-width="1.25" stroke-miterlimit="10"/>
<path d="M1.66602 16.8998C1.66602 17.5665 1.94935 17.8081 2.61602 17.8081H3.09102C3.75768 17.8081 4.04102 17.5665 4.04102 16.8998V12.2331C4.04102 11.5665 3.75768 11.3247 3.09102 11.3247H2.61602C1.94935 11.3247 1.66602 11.5665 1.66602 12.2331V13.4831" stroke="black" stroke-width="1.25" stroke-linecap="round" stroke-linejoin="round"/>
<path d="M15.9 3.09977L14.425 1.9581C14.2333 1.76644 13.8084 1.6748 13.5167 1.6748H11.7084C11.1334 1.6748 10.5167 2.09976 10.375 2.67476L9.23335 6.1498C8.99168 6.81646 9.42502 7.39146 10.1417 7.39146H12.05C12.3334 7.39146 12.575 7.63317 12.525 7.9665L12.2834 9.4915C12.1917 9.9165 12.475 10.3998 12.9 10.5415C13.2834 10.6832 13.7583 10.4915 13.95 10.2082L15.9 7.29981" stroke="black" stroke-width="1.25" stroke-miterlimit="10"/>
<path d="M18.332 3.09922C18.332 2.43255 18.0487 2.19092 17.382 2.19092H16.907C16.2404 2.19092 15.957 2.43255 15.957 3.09922V7.76587C15.957 8.43249 16.2404 8.67424 16.907 8.67424H17.382C18.0487 8.67424 18.332 8.43249 18.332 7.76587V6.66591" stroke="black" stroke-width="1.25" stroke-linecap="round" stroke-linejoin="round"/>
</g>
</g>
<defs>
<clipPath id="clip0_1_2957">
<rect width="20" height="20" fill="white"/>
</clipPath>
</defs>
</svg>
