<svg width="20" height="20" viewBox="0 0 20 20" fill="none" xmlns="http://www.w3.org/2000/svg">
<g clip-path="url(#clip0_1_2925)">
<mask id="mask0_1_2925" style="mask-type:luminance" maskUnits="userSpaceOnUse" x="0" y="0" width="20" height="20">
<path d="M20 0H0V20H20V0Z" fill="white"/>
</mask>
<g mask="url(#mask0_1_2925)">
<path d="M7.44102 1.6665H4.18268C2.49935 1.6665 1.66602 2.49984 1.66602 4.18317V7.44984C1.66602 9.1665 2.49935 9.99984 4.18268 9.95817H7.44935C9.16602 9.99984 9.99935 9.1665 9.95768 7.4415V4.18317C9.99935 2.49984 9.16602 1.6665 7.44102 1.6665ZM7.50768 8.13317C6.94102 8.13317 6.39102 7.9165 5.93268 7.53317C5.41602 7.90817 4.79102 8.13317 4.11602 8.13317C3.77435 8.13317 3.49102 7.84984 3.49102 7.50817C3.49102 7.1665 3.77435 6.88317 4.11602 6.88317C4.96602 6.88317 5.67435 6.29984 5.93268 5.49984H4.11602C3.77435 5.49984 3.49102 5.2165 3.49102 4.87484C3.49102 4.53317 3.77435 4.24984 4.11602 4.24984H5.19102C5.22435 3.93317 5.48268 3.68317 5.80768 3.68317C6.13268 3.68317 6.39102 3.93317 6.42435 4.24984H6.64102C6.64935 4.24984 6.65768 4.24984 6.65768 4.24984H6.67435H7.49935C7.84102 4.24984 8.12435 4.53317 8.12435 4.87484C8.12435 5.2165 7.84935 5.49984 7.49935 5.49984H7.22435C7.14935 5.89984 6.99102 6.27484 6.78268 6.6165C7.00768 6.78317 7.24935 6.88317 7.50768 6.88317C7.84935 6.88317 8.13268 7.1665 8.13268 7.50817C8.13268 7.84984 7.84935 8.13317 7.50768 8.13317Z" fill="black"/>
<path d="M7.49935 18.9583C3.94102 18.9583 1.04102 16.0583 1.04102 12.5C1.04102 12.1583 1.32435 11.875 1.66602 11.875C2.00768 11.875 2.29102 12.1583 2.29102 12.5C2.29102 14.9667 4.00768 17.0333 6.31602 17.575L6.09102 17.2C5.91602 16.9 6.00768 16.5167 6.30768 16.3417C6.59935 16.1667 6.99102 16.2583 7.16602 16.5583L8.04102 18.0167C8.15768 18.2083 8.15768 18.45 8.04935 18.6417C7.93268 18.8333 7.72435 18.9583 7.49935 18.9583Z" fill="black"/>
<path d="M18.3327 8.12484C17.991 8.12484 17.7077 7.8415 17.7077 7.49984C17.7077 5.03317 15.991 2.9665 13.6827 2.42484L13.9077 2.79984C14.0827 3.09984 13.991 3.48317 13.691 3.65817C13.3994 3.83317 13.0077 3.7415 12.8327 3.4415L11.9577 1.98317C11.841 1.7915 11.841 1.54984 11.9494 1.35817C12.066 1.1665 12.2744 1.0415 12.4994 1.0415C16.0577 1.0415 18.9577 3.9415 18.9577 7.49984C18.9577 7.8415 18.6744 8.12484 18.3327 8.12484Z" fill="black"/>
<path d="M14.0986 9.87451C11.7652 9.87451 9.86523 11.7662 9.86523 14.1078C9.86523 16.4412 11.7569 18.3412 14.0986 18.3412C16.4319 18.3412 18.3319 16.4495 18.3319 14.1078C18.3319 11.7662 16.4402 9.87451 14.0986 9.87451ZM16.1652 16.1162C15.8569 16.2662 15.4819 16.1495 15.3236 15.8328L15.1819 15.5495H13.0236L12.8819 15.8328C12.7736 16.0495 12.5486 16.1745 12.3236 16.1745C12.2319 16.1745 12.1319 16.1495 12.0486 16.1078C11.7402 15.9495 11.6152 15.5745 11.7652 15.2662L13.5486 11.7078C13.6569 11.4995 13.8736 11.3662 14.1069 11.3662C14.3402 11.3662 14.5569 11.4995 14.6652 11.7162L16.4486 15.2745C16.5986 15.5828 16.4736 15.9578 16.1652 16.1162Z" fill="black"/>
<path d="M13.6484 14.2999H14.5568L14.0984 13.3916L13.6484 14.2999Z" fill="black"/>
</g>
</g>
<defs>
<clipPath id="clip0_1_2925">
<rect width="20" height="20" fill="white"/>
</clipPath>
</defs>
</svg>
