<svg width="20" height="20" viewBox="0 0 20 20" fill="none" xmlns="http://www.w3.org/2000/svg">
<g clip-path="url(#clip0_1_2942)">
<mask id="mask0_1_2942" style="mask-type:luminance" maskUnits="userSpaceOnUse" x="0" y="0" width="20" height="20">
<path d="M20 0H0V20H20V0Z" fill="white"/>
</mask>
<g mask="url(#mask0_1_2942)">
<path d="M6.66602 18.5993C6.43268 18.5993 6.191 18.541 5.97433 18.4243C5.49933 18.1743 5.20768 17.6743 5.20768 17.141V15.9578C2.69102 15.6994 1.04102 13.8493 1.04102 11.1993V6.19938C1.04102 3.33271 2.96602 1.40771 5.83268 1.40771H14.166C17.0327 1.40771 18.9577 3.33271 18.9577 6.19938V11.1993C18.9577 14.066 17.0327 15.991 14.166 15.991H11.0243L7.47432 18.3578C7.23266 18.5161 6.94935 18.5993 6.66602 18.5993ZM5.83268 2.64937C3.68268 2.64937 2.29102 4.04104 2.29102 6.19104V11.1911C2.29102 13.3411 3.68268 14.7328 5.83268 14.7328C6.17435 14.7328 6.45768 15.0161 6.45768 15.3578V17.1328C6.45768 17.2411 6.52435 17.2911 6.56602 17.3161C6.60769 17.3411 6.69102 17.3661 6.78269 17.3078L10.491 14.8411C10.591 14.7744 10.716 14.7328 10.841 14.7328H14.1743C16.3243 14.7328 17.716 13.3411 17.716 11.1911V6.19104C17.716 4.04104 16.3243 2.64937 14.1743 2.64937H5.83268Z" fill="black"/>
<path d="M9.99853 10.0908C9.65687 10.0908 9.37353 9.8075 9.37353 9.46584V9.29084C9.37353 8.32418 10.0819 7.84917 10.3485 7.66584C10.6569 7.4575 10.7569 7.31585 10.7569 7.09918C10.7569 6.68251 10.4152 6.34082 9.99853 6.34082C9.58187 6.34082 9.2402 6.68251 9.2402 7.09918C9.2402 7.44085 8.95687 7.72418 8.6152 7.72418C8.27357 7.72418 7.99023 7.44085 7.99023 7.09918C7.99023 5.99085 8.8902 5.09082 9.99853 5.09082C11.1069 5.09082 12.0069 5.99085 12.0069 7.09918C12.0069 8.04918 11.3069 8.52417 11.0485 8.69917C10.7235 8.91584 10.6235 9.0575 10.6235 9.29084V9.46584C10.6235 9.81584 10.3402 10.0908 9.99853 10.0908Z" fill="black"/>
<path d="M10 12.166C9.65 12.166 9.375 11.8827 9.375 11.541C9.375 11.1993 9.65833 10.916 10 10.916C10.3417 10.916 10.625 11.1993 10.625 11.541C10.625 11.8827 10.35 12.166 10 12.166Z" fill="black"/>
</g>
</g>
<defs>
<clipPath id="clip0_1_2942">
<rect width="20" height="20" fill="white"/>
</clipPath>
</defs>
</svg>
