<svg width="20" height="20" viewBox="0 0 20 20" fill="none" xmlns="http://www.w3.org/2000/svg">
<g clip-path="url(#clip0_1_2879)">
<mask id="mask0_1_2879" style="mask-type:luminance" maskUnits="userSpaceOnUse" x="0" y="0" width="20" height="20">
<path d="M20 0H0V20H20V0Z" fill="white"/>
</mask>
<g mask="url(#mask0_1_2879)">
<path d="M10 8.76625C9.65833 8.76625 9.375 8.48292 9.375 8.14121V5.36621C9.375 5.02454 9.65833 4.74121 10 4.74121C10.3417 4.74121 10.625 5.02454 10.625 5.36621V8.14121C10.625 8.49125 10.3417 8.76625 10 8.76625Z" fill="black"/>
<path d="M10.0167 16.9587C7.86672 16.9587 5.72505 16.617 3.68339 15.9337C2.92505 15.6837 2.35005 15.142 2.10005 14.4587C1.85005 13.7753 1.93339 12.992 2.34172 12.3087L3.40005 10.542C3.63339 10.1503 3.84172 9.417 3.84172 8.95867V7.20869C3.84172 3.80036 6.60839 1.03369 10.0167 1.03369C13.425 1.03369 16.1917 3.80036 16.1917 7.20869V8.95867C16.1917 9.40867 16.4 10.1503 16.6334 10.542L17.6917 12.3087C18.0834 12.9587 18.15 13.7337 17.8917 14.442C17.6334 15.1503 17.0667 15.692 16.35 15.9337C14.3084 16.6253 12.1667 16.9587 10.0167 16.9587ZM10.0167 2.29202C7.30005 2.29202 5.09172 4.50036 5.09172 7.21702V8.967C5.09172 9.642 4.82505 10.617 4.47505 11.192L3.41672 12.967C3.20005 13.3253 3.15005 13.7087 3.27505 14.042C3.40005 14.3753 3.68339 14.6253 4.08339 14.7587C7.91672 16.0337 12.1334 16.0337 15.9667 14.7587C16.325 14.642 16.6 14.3753 16.725 14.0253C16.8584 13.6753 16.8167 13.292 16.625 12.967L15.5667 11.2003C15.2167 10.6253 14.95 9.65033 14.95 8.97533V7.22536C14.9417 4.50036 12.7334 2.29202 10.0167 2.29202Z" fill="black"/>
<path d="M9.99959 19.0836C9.10793 19.0836 8.23294 18.7169 7.59961 18.0836C6.96628 17.4503 6.59961 16.5753 6.59961 15.6836H7.84961C7.84961 16.2503 8.08294 16.8003 8.48293 17.2003C8.88293 17.6003 9.43293 17.8336 9.99959 17.8336C11.1829 17.8336 12.1496 16.8669 12.1496 15.6836H13.3996C13.3996 17.5586 11.8746 19.0836 9.99959 19.0836Z" fill="black"/>
</g>
</g>
<defs>
<clipPath id="clip0_1_2879">
<rect width="20" height="20" fill="white"/>
</clipPath>
</defs>
</svg>
