<svg width="20" height="20" viewBox="0 0 20 20" fill="none" xmlns="http://www.w3.org/2000/svg">
<path d="M14.5331 12.8085C14.3747 12.8085 14.2164 12.7502 14.0914 12.6252C13.8497 12.3835 13.8497 11.9835 14.0914 11.7418L15.7831 10.0502L14.0914 8.3585C13.8497 8.11686 13.8497 7.71686 14.0914 7.4752C14.3331 7.23353 14.7331 7.23353 14.9747 7.4752L17.1081 9.6085C17.3497 9.85017 17.3497 10.2502 17.1081 10.4918L14.9747 12.6252C14.8497 12.7502 14.6914 12.8085 14.5331 12.8085Z" fill="white"/>
<path d="M16.6078 10.6748H8.13281C7.79115 10.6748 7.50781 10.3915 7.50781 10.0498C7.50781 9.70814 7.79115 9.4248 8.13281 9.4248H16.6078C16.9495 9.4248 17.2328 9.70814 17.2328 10.0498C17.2328 10.3915 16.9495 10.6748 16.6078 10.6748Z" fill="white"/>
<path d="M9.79947 17.2918C5.50781 17.2918 2.50781 14.2918 2.50781 10.0002C2.50781 5.7085 5.50781 2.7085 9.79947 2.7085C10.1411 2.7085 10.4245 2.99183 10.4245 3.3335C10.4245 3.67516 10.1411 3.9585 9.79947 3.9585C6.24115 3.9585 3.75781 6.44183 3.75781 10.0002C3.75781 13.5585 6.24115 16.0418 9.79947 16.0418C10.1411 16.0418 10.4245 16.3252 10.4245 16.6668C10.4245 17.0085 10.1411 17.2918 9.79947 17.2918Z" fill="white"/>
</svg>
