<svg width="20" height="20" viewBox="0 0 20 20" fill="none" xmlns="http://www.w3.org/2000/svg">
<g clip-path="url(#clip0_1_2865)">
<mask id="mask0_1_2865" style="mask-type:luminance" maskUnits="userSpaceOnUse" x="0" y="0" width="20" height="20">
<path d="M20 0H0V20H20V0Z" fill="white"/>
</mask>
<g mask="url(#mask0_1_2865)">
<path d="M10.0007 10.6248C7.35898 10.6248 5.20898 8.47484 5.20898 5.83317C5.20898 3.1915 7.35898 1.0415 10.0007 1.0415C12.6423 1.0415 14.7923 3.1915 14.7923 5.83317C14.7923 8.47484 12.6423 10.6248 10.0007 10.6248ZM10.0007 2.2915C8.05065 2.2915 6.45898 3.88317 6.45898 5.83317C6.45898 7.78317 8.05065 9.37484 10.0007 9.37484C11.9507 9.37484 13.5423 7.78317 13.5423 5.83317C13.5423 3.88317 11.9507 2.2915 10.0007 2.2915Z" fill="black"/>
<path d="M17.1584 18.9583C16.8167 18.9583 16.5334 18.675 16.5334 18.3333C16.5334 15.4583 13.6002 13.125 10.0002 13.125C6.40012 13.125 3.4668 15.4583 3.4668 18.3333C3.4668 18.675 3.18346 18.9583 2.8418 18.9583C2.50013 18.9583 2.2168 18.675 2.2168 18.3333C2.2168 14.775 5.70846 11.875 10.0002 11.875C14.2918 11.875 17.7834 14.775 17.7834 18.3333C17.7834 18.675 17.5001 18.9583 17.1584 18.9583Z" fill="black"/>
</g>
</g>
<defs>
<clipPath id="clip0_1_2865">
<rect width="20" height="20" fill="white"/>
</clipPath>
</defs>
</svg>
