<svg width="20" height="20" viewBox="0 0 20 20" fill="none" xmlns="http://www.w3.org/2000/svg">
<g clip-path="url(#clip0_1_1418)">
<mask id="mask0_1_1418" style="mask-type:luminance" maskUnits="userSpaceOnUse" x="0" y="0" width="20" height="20">
<path d="M19.583 0.416992V19.583H0.416992V0.416992H19.583Z" fill="white" stroke="white" stroke-width="0.833333"/>
</mask>
<g mask="url(#mask0_1_1418)">
<path d="M8.82617 4.24414C9.48865 3.86065 10.5211 3.86068 11.1836 4.24414L11.1846 4.24512L15.1143 6.5127C15.9438 7.07182 16.2833 7.34345 16.4561 7.64453C16.6225 7.93489 16.6592 8.29891 16.6592 9.18359V13.3174C16.6592 14.2025 16.6224 14.5676 16.459 14.8555C16.2905 15.1519 15.9596 15.4158 15.1475 15.9619L11.1758 18.2559L11.1709 18.2588C10.8596 18.4442 10.4384 18.542 10.001 18.542C9.56388 18.542 9.14598 18.4397 8.81738 18.2559L4.89453 15.9922C4.06 15.43 3.71909 15.1584 3.5459 14.8564C3.37932 14.5661 3.34278 14.2022 3.34277 13.3174V9.18359C3.34278 8.29842 3.37857 7.93336 3.54199 7.64551C3.71001 7.34958 4.03911 7.08488 4.84766 6.54102L8.82617 4.24414ZM10.001 4.375C9.71338 4.375 9.39926 4.42618 9.13477 4.5498L9.02539 4.60645L5.08398 6.88086L5.07129 6.88867L5.05859 6.89746C4.78497 7.08328 4.56003 7.23576 4.3877 7.37305C4.21254 7.51261 4.06142 7.65914 3.9541 7.8457C3.84444 8.03637 3.79908 8.23513 3.77832 8.44727C3.75844 8.65041 3.75879 8.89593 3.75879 9.18359V13.3174C3.75879 13.6048 3.75859 13.8513 3.7793 14.0557C3.80101 14.2698 3.8487 14.4699 3.96191 14.6621C4.07214 14.8491 4.22623 14.9975 4.40625 15.1396C4.58403 15.28 4.81633 15.4367 5.10059 15.6289L5.11328 15.6377L5.12598 15.6445L9.03223 17.8926V17.8936C9.31606 18.0591 9.67732 18.125 10.0049 18.125C10.3325 18.125 10.6937 18.0591 10.9775 17.8936L10.9766 17.8926L14.917 15.6191L14.9307 15.6123L14.9434 15.6035C15.217 15.4177 15.4419 15.2652 15.6143 15.1279C15.7894 14.9883 15.9405 14.8419 16.0479 14.6553C16.1575 14.4646 16.2019 14.2658 16.2227 14.0537C16.2425 13.8506 16.2422 13.605 16.2422 13.3174V9.18359C16.2422 8.89614 16.2434 8.64971 16.2227 8.44531C16.201 8.23114 16.1533 8.03114 16.04 7.83887C15.9298 7.65178 15.7757 7.50353 15.5957 7.36133C15.4179 7.2209 15.1848 7.06438 14.9004 6.87207L14.8887 6.86328L14.875 6.85645L10.9668 4.60645C10.6874 4.43958 10.3239 4.37503 10.001 4.375Z" fill="#FE6981" stroke="#1EBFDA" stroke-width="0.833333"/>
<path d="M7.91797 1.4585H12.085C13.0187 1.45856 13.6798 1.71368 14.1084 2.14209C14.5371 2.57074 14.793 3.2324 14.793 4.1665V6.35791C14.793 6.46935 14.6964 6.56671 14.585 6.56689C14.4734 6.56689 14.376 6.46946 14.376 6.35791V4.1665C14.376 3.46121 14.2284 2.85886 13.8105 2.44092C13.3927 2.02303 12.7902 1.87456 12.085 1.87451H7.91797C7.21258 1.87451 6.61033 2.02297 6.19238 2.44092C5.77443 2.85887 5.62598 3.46112 5.62598 4.1665V6.30029C5.62571 6.41165 5.52936 6.5083 5.41797 6.5083C5.30294 6.5083 5.2102 6.41635 5.20996 6.30029V4.1665C5.20996 3.2324 5.4649 2.57074 5.89355 2.14209C6.32221 1.71344 6.98387 1.4585 7.91797 1.4585Z" fill="#FE6981" stroke="#1EBFDA" stroke-width="0.833333"/>
<path d="M9.30176 9.04736C9.64636 8.50507 10.3623 8.50521 10.707 9.04736L10.708 9.04834L11.1826 9.79053L11.2715 9.9292L11.4307 9.96924L12.2812 10.186C12.6235 10.2732 12.8376 10.4841 12.9121 10.7173C12.9875 10.9535 12.9366 11.2511 12.7109 11.5269L12.1543 12.1997L12.0498 12.3267L12.0596 12.4897L12.1094 13.3647C12.1275 13.7199 11.9983 13.9828 11.7949 14.1372C11.6667 14.2263 11.5197 14.2739 11.3584 14.2739C11.2675 14.2739 11.172 14.2612 11.0742 14.2319L10.9746 14.1968L10.9678 14.1938L10.1514 13.8774L9.99902 13.8179L9.84668 13.8784L9.03027 14.2036C8.69946 14.3346 8.4033 14.2901 8.20312 14.145C8.0061 14.002 7.87298 13.7343 7.8916 13.3726L7.94141 12.4976L7.95117 12.3345L7.84668 12.2085L7.29199 11.5386H7.29297C7.0635 11.2517 7.01537 10.9632 7.0957 10.7222L7.09766 10.7173C7.17216 10.4841 7.38621 10.2732 7.72852 10.186L8.57812 9.96924L8.7373 9.9292L8.82617 9.79053L9.30176 9.04834V9.04736ZM9.65918 9.28955L9.18457 10.0229L9.18164 10.0259C9.09325 10.1654 8.92064 10.3005 8.75586 10.3647L8.68555 10.3882L7.83594 10.5942L7.18848 10.7515L7.61328 11.2651L8.1709 11.9399L8.1748 11.9438C8.29049 12.0797 8.37037 12.3301 8.35938 12.5249L8.30957 13.3999L8.27246 14.0532L8.87988 13.811L9.69434 13.4858L9.69531 13.4868C9.87192 13.4174 10.1289 13.4165 10.3057 13.4858L11.1211 13.811L11.7285 14.0532L11.6914 13.3999L11.6416 12.5249C11.6308 12.3343 11.7071 12.0877 11.8301 11.938L12.3887 11.2651L12.8076 10.7583L12.1699 10.5952L11.3242 10.3794C11.1629 10.3367 10.9788 10.213 10.8672 10.0786L10.8242 10.021L10.3604 9.29248L10.0117 8.74463L9.65918 9.28955Z" fill="#FE6981" stroke="#1EBFDA" stroke-width="0.833333"/>
</g>
</g>
<defs>
<clipPath id="clip0_1_1418">
<rect width="20" height="20" fill="white"/>
</clipPath>
</defs>
</svg>
