<svg width="14" height="14" viewBox="0 0 14 14" fill="none" xmlns="http://www.w3.org/2000/svg">
<g clip-path="url(#clip0_1_1381)">
<mask id="mask0_1_1381" style="mask-type:luminance" maskUnits="userSpaceOnUse" x="0" y="0" width="14" height="14">
<path d="M13.708 0.291992V13.708H0.291992V0.291992H13.708Z" fill="white" stroke="white" stroke-width="0.583333"/>
</mask>
<g mask="url(#mask0_1_1381)">
<path d="M7.63453 6.01401L6.9987 5.37817L4.92203 7.45484C4.3387 8.03817 4.08203 8.81401 4.08203 9.53151C4.08203 10.249 4.4087 11.0248 4.92203 11.6082C5.50536 12.1915 6.21703 12.5182 6.9987 12.5182C7.78036 12.5182 8.49203 12.1915 9.07536 11.6782C10.242 10.5115 10.242 8.63317 9.07536 7.46651" stroke="#32EA6E" stroke-width="0.875" stroke-linecap="round" stroke-linejoin="round"/>
<path d="M6.99854 2.14064C7.17938 2.14064 7.32521 1.9948 7.32521 1.81397C7.32521 1.63314 7.17938 1.4873 6.99854 1.4873C6.81771 1.4873 6.67188 1.63314 6.67188 1.81397C6.67188 1.9948 6.81771 2.14064 6.99854 2.14064Z" fill="#FE6981" stroke="#32EA6E" stroke-width="0.875" stroke-linecap="round" stroke-linejoin="round"/>
<path d="M1.49268 7.64772C1.67352 7.64772 1.81935 7.50188 1.81935 7.32105C1.81935 7.14022 1.67352 6.99438 1.49268 6.99438C1.31185 6.99438 1.16602 7.14022 1.16602 7.32105C1.16602 7.50188 1.31185 7.64772 1.49268 7.64772Z" fill="#FE6981" stroke="#32EA6E" stroke-width="0.875" stroke-linecap="round" stroke-linejoin="round"/>
<path d="M12.5064 7.64772C12.6872 7.64772 12.833 7.50188 12.833 7.32105C12.833 7.14022 12.6872 6.99438 12.5064 6.99438C12.3255 6.99438 12.1797 7.14022 12.1797 7.32105C12.1797 7.50188 12.3255 7.64772 12.5064 7.64772Z" fill="#FE6981" stroke="#32EA6E" stroke-width="0.875" stroke-linecap="round" stroke-linejoin="round"/>
<path d="M10.8892 3.75685C11.07 3.75685 11.2158 3.61102 11.2158 3.43018C11.2158 3.24935 11.07 3.10352 10.8892 3.10352C10.7083 3.10352 10.5625 3.24935 10.5625 3.43018C10.5625 3.61102 10.7083 3.75685 10.8892 3.75685Z" fill="#FE6981" stroke="#32EA6E" stroke-width="0.875" stroke-linecap="round" stroke-linejoin="round"/>
<path d="M3.10792 3.75685C3.28875 3.75685 3.43458 3.61102 3.43458 3.43018C3.43458 3.24935 3.28875 3.10352 3.10792 3.10352C2.92708 3.10352 2.78125 3.24935 2.78125 3.43018C2.78125 3.61102 2.92708 3.75685 3.10792 3.75685Z" fill="#FE6981" stroke="#32EA6E" stroke-width="0.875" stroke-linecap="round" stroke-linejoin="round"/>
</g>
</g>
<defs>
<clipPath id="clip0_1_1381">
<rect width="14" height="14" fill="white"/>
</clipPath>
</defs>
</svg>
