<svg width="28" height="28" viewBox="0 0 28 28" fill="none" xmlns="http://www.w3.org/2000/svg">
<g clip-path="url(#clip0_38_595)">
<mask id="mask0_38_595" style="mask-type:luminance" maskUnits="userSpaceOnUse" x="0" y="0" width="28" height="28">
<path d="M28 0H0V28H28V0Z" fill="white"/>
</mask>
<g mask="url(#mask0_38_595)">
<path d="M2.33398 14.9685V17.5002C2.33398 23.3335 4.66732 25.6668 10.5007 25.6668H17.5007C23.334 25.6668 25.6673 23.3335 25.6673 17.5002V10.5002C25.6673 4.66683 23.334 2.3335 17.5007 2.3335H10.5007C4.66732 2.3335 2.33398 4.66683 2.33398 10.5002" stroke="black" stroke-width="1.75" stroke-linecap="round" stroke-linejoin="round"/>
<path d="M11.7947 13.0078H8.70303C7.96804 13.0078 7.37305 13.6028 7.37305 14.3378V20.3111H11.7947V13.0078Z" stroke="black" stroke-width="1.75" stroke-miterlimit="10" stroke-linecap="round" stroke-linejoin="round"/>
<path d="M14.8865 7.69971H13.1132C12.3782 7.69971 11.7832 8.29472 11.7832 9.02972V20.2998H16.2049V9.02972C16.2049 8.29472 15.6215 7.69971 14.8865 7.69971Z" stroke="black" stroke-width="1.75" stroke-miterlimit="10" stroke-linecap="round" stroke-linejoin="round"/>
<path d="M19.3085 14.9912H16.2168V20.2997H20.6385V16.3212C20.6268 15.5862 20.0318 14.9912 19.3085 14.9912Z" stroke="black" stroke-width="1.75" stroke-miterlimit="10" stroke-linecap="round" stroke-linejoin="round"/>
</g>
</g>
<defs>
<clipPath id="clip0_38_595">
<rect width="28" height="28" fill="white"/>
</clipPath>
</defs>
</svg>
