<svg width="20" height="20" viewBox="0 0 20 20" fill="none" xmlns="http://www.w3.org/2000/svg">
<g clip-path="url(#clip0_1_1449)">
<mask id="mask0_1_1449" style="mask-type:luminance" maskUnits="userSpaceOnUse" x="0" y="0" width="20" height="20">
<path d="M20 0H0V20H20V0Z" fill="white"/>
</mask>
<g mask="url(#mask0_1_1449)">
<path d="M10 8.76625C9.65833 8.76625 9.375 8.48292 9.375 8.14121V5.36621C9.375 5.02454 9.65833 4.74121 10 4.74121C10.3417 4.74121 10.625 5.02454 10.625 5.36621V8.14121C10.625 8.49125 10.3417 8.76625 10 8.76625Z" fill="#010101"/>
<path d="M10.0167 16.9584C7.86672 16.9584 5.72505 16.6168 3.68339 15.9334C2.92505 15.6834 2.35005 15.1418 2.10005 14.4584C1.85005 13.7751 1.93339 12.9918 2.34172 12.3084L3.40005 10.5418C3.63339 10.1501 3.84172 9.41676 3.84172 8.95842V7.20845C3.84172 3.80011 6.60839 1.03345 10.0167 1.03345C13.425 1.03345 16.1917 3.80011 16.1917 7.20845V8.95842C16.1917 9.40842 16.4 10.1501 16.6334 10.5418L17.6917 12.3084C18.0834 12.9584 18.15 13.7334 17.8917 14.4418C17.6334 15.1501 17.0667 15.6918 16.35 15.9334C14.3084 16.6251 12.1667 16.9584 10.0167 16.9584ZM10.0167 2.29178C7.30005 2.29178 5.09172 4.50011 5.09172 7.21678V8.96676C5.09172 9.64176 4.82505 10.6168 4.47505 11.1918L3.41672 12.9668C3.20005 13.3251 3.15005 13.7084 3.27505 14.0418C3.40005 14.3751 3.68339 14.6251 4.08339 14.7584C7.91672 16.0334 12.1334 16.0334 15.9667 14.7584C16.325 14.6418 16.6 14.3751 16.725 14.0251C16.8584 13.6751 16.8167 13.2918 16.625 12.9668L15.5667 11.2001C15.2167 10.6251 14.95 9.65009 14.95 8.97509V7.22511C14.9417 4.50011 12.7334 2.29178 10.0167 2.29178Z" fill="#010101"/>
<path d="M9.99959 19.0836C9.10793 19.0836 8.23294 18.7169 7.59961 18.0836C6.96628 17.4503 6.59961 16.5753 6.59961 15.6836H7.84961C7.84961 16.2503 8.08294 16.8003 8.48293 17.2003C8.88293 17.6003 9.43293 17.8336 9.99959 17.8336C11.1829 17.8336 12.1496 16.8669 12.1496 15.6836H13.3996C13.3996 17.5586 11.8746 19.0836 9.99959 19.0836Z" fill="#010101"/>
</g>
</g>
<defs>
<clipPath id="clip0_1_1449">
<rect width="20" height="20" fill="white"/>
</clipPath>
</defs>
</svg>
