<svg width="28" height="28" viewBox="0 0 28 28" fill="none" xmlns="http://www.w3.org/2000/svg">
<g clip-path="url(#clip0_38_575)">
<mask id="mask0_38_575" style="mask-type:luminance" maskUnits="userSpaceOnUse" x="0" y="0" width="28" height="28">
<path d="M28 0H0V28H28V0Z" fill="white"/>
</mask>
<g mask="url(#mask0_38_575)">
<path d="M20.7557 26.5418H7.24565C4.04898 26.5418 1.45898 23.9402 1.45898 20.7435V12.0985C1.45898 10.5118 2.43898 8.5168 3.69898 7.5368L9.98732 2.6368C11.8773 1.1668 14.899 1.0968 16.859 2.47346L24.069 7.52513C25.4573 8.49346 26.5423 10.5701 26.5423 12.2618V20.7552C26.5423 23.9402 23.9523 26.5418 20.7557 26.5418ZM11.0607 4.01346L4.77232 8.91346C3.94398 9.5668 3.20898 11.0485 3.20898 12.0985V20.7435C3.20898 22.9718 5.01732 24.7918 7.24565 24.7918H20.7557C22.984 24.7918 24.7923 22.9835 24.7923 20.7552V12.2618C24.7923 11.1418 23.9873 9.59013 23.0657 8.96013L15.8557 3.90846C14.5257 2.97513 12.3323 3.0218 11.0607 4.01346Z" fill="#01A2F1"/>
<path d="M14 21.875C13.5217 21.875 13.125 21.4783 13.125 21V17.5C13.125 17.0217 13.5217 16.625 14 16.625C14.4783 16.625 14.875 17.0217 14.875 17.5V21C14.875 21.4783 14.4783 21.875 14 21.875Z" fill="#01A2F1"/>
</g>
</g>
<defs>
<clipPath id="clip0_38_575">
<rect width="28" height="28" fill="white"/>
</clipPath>
</defs>
</svg>
