<svg width="28" height="28" viewBox="0 0 28 28" fill="none" xmlns="http://www.w3.org/2000/svg">
<g clip-path="url(#clip0_38_607)">
<mask id="mask0_38_607" style="mask-type:luminance" maskUnits="userSpaceOnUse" x="0" y="0" width="28" height="28">
<path d="M28 0H0V28H28V0Z" fill="white"/>
</mask>
<g mask="url(#mask0_38_607)">
<path d="M13.9993 14.8752C10.301 14.8752 7.29102 11.8652 7.29102 8.16683C7.29102 4.4685 10.301 1.4585 13.9993 1.4585C17.6977 1.4585 20.7077 4.4685 20.7077 8.16683C20.7077 11.8652 17.6977 14.8752 13.9993 14.8752ZM13.9993 3.2085C11.2693 3.2085 9.04102 5.43683 9.04102 8.16683C9.04102 10.8968 11.2693 13.1252 13.9993 13.1252C16.7293 13.1252 18.9577 10.8968 18.9577 8.16683C18.9577 5.43683 16.7293 3.2085 13.9993 3.2085Z" fill="black"/>
<path d="M24.0218 26.5417C23.5434 26.5417 23.1468 26.145 23.1468 25.6667C23.1468 21.6417 19.0402 18.375 14.0002 18.375C8.96017 18.375 4.85352 21.6417 4.85352 25.6667C4.85352 26.145 4.45685 26.5417 3.97852 26.5417C3.50018 26.5417 3.10352 26.145 3.10352 25.6667C3.10352 20.685 7.99184 16.625 14.0002 16.625C20.0086 16.625 24.8968 20.685 24.8968 25.6667C24.8968 26.145 24.5001 26.5417 24.0218 26.5417Z" fill="black"/>
</g>
</g>
<defs>
<clipPath id="clip0_38_607">
<rect width="28" height="28" fill="white"/>
</clipPath>
</defs>
</svg>
