<svg width="28" height="28" viewBox="0 0 28 28" fill="none" xmlns="http://www.w3.org/2000/svg">
<g clip-path="url(#clip0_1_3615)">
<mask id="mask0_1_3615" style="mask-type:luminance" maskUnits="userSpaceOnUse" x="0" y="0" width="28" height="28">
<path d="M28 0H0V28H28V0Z" fill="white"/>
</mask>
<g mask="url(#mask0_1_3615)">
<path d="M18.889 2.3335H9.11232C4.86565 2.3335 2.33398 4.86516 2.33398 9.11183V18.8768C2.33398 23.1352 4.86565 25.6668 9.11232 25.6668H18.8773C23.124 25.6668 25.6556 23.1352 25.6556 18.8885V9.11183C25.6673 4.86516 23.1357 2.3335 18.889 2.3335ZM18.3873 18.3868C18.3173 19.3785 18.2357 20.6152 15.9957 20.6152H12.0057C9.77732 20.6152 9.68398 19.3785 9.61398 18.3868L9.25232 13.7668C9.22898 13.4635 9.33398 13.1718 9.53232 12.9502C9.73065 12.7285 10.0223 12.6118 10.314 12.6118H17.6873C17.979 12.6118 18.2707 12.7402 18.469 12.9502C18.6673 13.1718 18.7723 13.4635 18.749 13.7552L18.3873 18.3868ZM19.6006 11.4568C19.5773 11.4568 19.554 11.4568 19.5307 11.4568C18.3173 11.3402 17.209 11.2585 16.1473 11.2118C14.724 11.1418 13.3007 11.1185 11.8657 11.1768C11.1657 11.2118 10.454 11.2585 9.75398 11.3285L8.48232 11.4568C8.45898 11.4568 8.42398 11.4568 8.40065 11.4568C7.99232 11.4568 7.64232 11.1535 7.60732 10.7335C7.56065 10.3018 7.88732 9.90516 8.31898 9.87016L9.59065 9.74183C10.0923 9.69516 10.5823 9.66016 11.084 9.63683L11.1773 9.0885C11.2707 8.50516 11.4457 7.38516 13.1957 7.38516H14.8173C16.579 7.38516 16.754 8.54016 16.8357 9.10016L16.929 9.66016C17.804 9.70683 18.7023 9.77683 19.6823 9.87016C20.1257 9.91683 20.4407 10.3018 20.4057 10.7452C20.359 11.1535 20.009 11.4568 19.6006 11.4568Z" fill="#F7092C"/>
</g>
</g>
<defs>
<clipPath id="clip0_1_3615">
<rect width="28" height="28" fill="white"/>
</clipPath>
</defs>
</svg>
