<svg width="29" height="29" viewBox="0 0 29 29" fill="none" xmlns="http://www.w3.org/2000/svg">
<path d="M22.6713 3.57959C23.3043 3.57959 23.9113 3.83101 24.3588 4.27855C24.8063 4.72609 25.0578 5.33308 25.0578 5.966V22.6709C25.0578 23.3038 24.8063 23.9108 24.3588 24.3583C23.9113 24.8058 23.3043 25.0573 22.6713 25.0573H5.96649C5.33357 25.0573 4.72658 24.8058 4.27904 24.3583C3.8315 23.9108 3.58008 23.3038 3.58008 22.6709V5.966C3.58008 5.33308 3.8315 4.72609 4.27904 4.27855C4.72658 3.83101 5.33357 3.57959 5.96649 3.57959H22.6713ZM22.0747 22.0743V15.7503C22.0747 14.7186 21.6649 13.7292 20.9354 12.9997C20.2059 12.2703 19.2166 11.8604 18.1849 11.8604C17.1707 11.8604 15.9894 12.4809 15.4167 13.4116V12.0871H12.0876V22.0743H15.4167V16.1918C15.4167 15.273 16.1565 14.5213 17.0752 14.5213C17.5183 14.5213 17.9432 14.6973 18.2564 15.0105C18.5697 15.3238 18.7457 15.7487 18.7457 16.1918V22.0743H22.0747ZM8.20971 10.2138C8.74136 10.2138 9.25123 10.0026 9.62717 9.62668C10.0031 9.25075 10.2143 8.74087 10.2143 8.20922C10.2143 7.09954 9.31939 6.19271 8.20971 6.19271C7.6749 6.19271 7.16199 6.40516 6.78382 6.78333C6.40565 7.1615 6.1932 7.67441 6.1932 8.20922C6.1932 9.3189 7.10003 10.2138 8.20971 10.2138ZM9.86827 22.0743V12.0871H6.56309V22.0743H9.86827Z" fill="url(#paint0_linear_1_3907)"/>
<defs>
<linearGradient id="paint0_linear_1_3907" x1="5.88126" y1="3.57959" x2="36.5637" y2="32.3443" gradientUnits="userSpaceOnUse">
<stop stop-color="#23B451"/>
<stop offset="0.475962" stop-color="#22838A"/>
<stop offset="1" stop-color="#18B2C8"/>
</linearGradient>
</defs>
</svg>
