<svg width="29" height="29" viewBox="0 0 29 29" fill="none" xmlns="http://www.w3.org/2000/svg">
<g clip-path="url(#clip0_1_3901)">
<path d="M9.72918 2.80762H19.7521C23.5704 2.80762 26.6727 5.90995 26.6727 9.7282V19.7511C26.6727 21.5866 25.9436 23.3469 24.6457 24.6447C23.3478 25.9426 21.5876 26.6717 19.7521 26.6717H9.72918C5.91093 26.6717 2.80859 23.5694 2.80859 19.7511V9.7282C2.80859 7.89275 3.53772 6.13247 4.83559 4.83461C6.13345 3.53675 7.89373 2.80762 9.72918 2.80762ZM9.49054 5.19403C8.35129 5.19403 7.25871 5.64659 6.45314 6.45216C5.64757 7.25773 5.195 8.35031 5.195 9.48956V19.9898C5.195 22.3642 7.11606 24.2853 9.49054 24.2853H19.9907C21.13 24.2853 22.2226 23.8327 23.0281 23.0272C23.8337 22.2216 24.2863 21.129 24.2863 19.9898V9.48956C24.2863 7.11509 22.3652 5.19403 19.9907 5.19403H9.49054ZM21.005 6.98383C21.4005 6.98383 21.7799 7.14097 22.0596 7.42068C22.3393 7.7004 22.4965 8.07977 22.4965 8.47534C22.4965 8.87091 22.3393 9.25028 22.0596 9.52999C21.7799 9.8097 21.4005 9.96684 21.005 9.96684C20.6094 9.96684 20.23 9.8097 19.9503 9.52999C19.6706 9.25028 19.5135 8.87091 19.5135 8.47534C19.5135 8.07977 19.6706 7.7004 19.9503 7.42068C20.23 7.14097 20.6094 6.98383 21.005 6.98383ZM14.7406 8.77364C16.3229 8.77364 17.8404 9.4022 18.9593 10.521C20.0781 11.6399 20.7067 13.1574 20.7067 14.7397C20.7067 16.3219 20.0781 17.8394 18.9593 18.9583C17.8404 20.0771 16.3229 20.7057 14.7406 20.7057C13.1583 20.7057 11.6409 20.0771 10.522 18.9583C9.40318 17.8394 8.77462 16.3219 8.77462 14.7397C8.77462 13.1574 9.40318 11.6399 10.522 10.521C11.6409 9.4022 13.1583 8.77364 14.7406 8.77364ZM14.7406 11.16C13.7913 11.16 12.8808 11.5372 12.2095 12.2085C11.5382 12.8798 11.161 13.7903 11.161 14.7397C11.161 15.689 11.5382 16.5995 12.2095 17.2708C12.8808 17.9421 13.7913 18.3193 14.7406 18.3193C15.69 18.3193 16.6005 17.9421 17.2718 17.2708C17.9431 16.5995 18.3203 15.689 18.3203 14.7397C18.3203 13.7903 17.9431 12.8798 17.2718 12.2085C16.6005 11.5372 15.69 11.16 14.7406 11.16Z" fill="url(#paint0_linear_1_3901)"/>
</g>
<defs>
<linearGradient id="paint0_linear_1_3901" x1="5.36546" y1="2.80762" x2="39.457" y2="34.7685" gradientUnits="userSpaceOnUse">
<stop stop-color="#23B451"/>
<stop offset="0.475962" stop-color="#22838A"/>
<stop offset="1" stop-color="#18B2C8"/>
</linearGradient>
<clipPath id="clip0_1_3901">
<rect width="28.6369" height="28.6369" fill="white"/>
</clipPath>
</defs>
</svg>
