<svg width="29" height="29" viewBox="0 0 29 29" fill="none" xmlns="http://www.w3.org/2000/svg">
<path d="M14.3207 2.38623C20.9108 2.38623 26.2528 7.72821 26.2528 14.3183C26.2528 20.9083 20.9108 26.2503 14.3207 26.2503C12.212 26.254 10.1404 25.6959 8.31892 24.6335L2.39346 26.2503L4.00668 20.3225C2.94348 18.5004 2.38499 16.4279 2.38869 14.3183C2.38869 7.72821 7.73067 2.38623 14.3207 2.38623ZM10.2543 8.71021L10.0157 8.71976C9.86136 8.73039 9.71061 8.77092 9.57178 8.83908C9.44241 8.91248 9.32426 9.0041 9.22098 9.11113C9.07779 9.24596 8.99666 9.3629 8.90955 9.47625C8.46821 10.0501 8.23059 10.7545 8.2342 11.4784C8.23659 12.0631 8.38931 12.6323 8.62796 13.1644C9.11598 14.2407 9.919 15.3802 10.9786 16.4362C11.2339 16.6904 11.4845 16.9457 11.7542 17.1832C13.0708 18.3422 14.6397 19.1782 16.3361 19.6245L17.0138 19.7283C17.2345 19.7402 17.4553 19.7235 17.6772 19.7128C18.0247 19.6944 18.3639 19.6004 18.6712 19.4371C18.8273 19.3564 18.9798 19.2688 19.1282 19.1746C19.1282 19.1746 19.1787 19.1404 19.2773 19.0672C19.4384 18.9479 19.5374 18.8632 19.6711 18.7236C19.7713 18.6202 19.8548 18.5001 19.9216 18.3632C20.0147 18.1687 20.1078 17.7977 20.146 17.4886C20.1746 17.2524 20.1662 17.1235 20.1627 17.0436C20.1579 16.9159 20.0517 16.7834 19.936 16.7274L19.2415 16.4159C19.2415 16.4159 18.2034 15.9637 17.5686 15.6749C17.5022 15.646 17.431 15.6294 17.3586 15.626C17.277 15.6175 17.1945 15.6266 17.1166 15.6527C17.0388 15.6789 16.9675 15.7215 16.9076 15.7776C16.9016 15.7752 16.8217 15.8432 15.959 16.8884C15.9095 16.955 15.8413 17.0053 15.7631 17.0329C15.6849 17.0605 15.6002 17.0642 15.5199 17.0436C15.4421 17.0228 15.366 16.9965 15.292 16.9648C15.144 16.9028 15.0927 16.8789 14.9913 16.8359C14.3063 16.5375 13.6722 16.1337 13.112 15.6392C12.9617 15.5079 12.8221 15.3647 12.6789 15.2263C12.2095 14.7767 11.8004 14.2681 11.4618 13.7133L11.3914 13.6C11.3416 13.5234 11.3008 13.4413 11.2697 13.3554C11.2244 13.18 11.3425 13.0392 11.3425 13.0392C11.3425 13.0392 11.6324 12.7218 11.7673 12.5499C11.8985 12.3829 12.0095 12.2206 12.0811 12.1049C12.2219 11.8782 12.266 11.6455 12.1921 11.4653C11.858 10.6492 11.5127 9.83739 11.1564 9.02999C11.086 8.8701 10.8771 8.75556 10.6874 8.73288C10.623 8.72493 10.5586 8.71857 10.4941 8.71379C10.3339 8.7046 10.1733 8.7062 10.0133 8.71857L10.2543 8.71021Z" fill="url(#paint0_linear_1_3912)"/>
<defs>
<linearGradient id="paint0_linear_1_3912" x1="4.94554" y1="2.38623" x2="39.0371" y2="34.3471" gradientUnits="userSpaceOnUse">
<stop stop-color="#23B451"/>
<stop offset="0.475962" stop-color="#22838A"/>
<stop offset="1" stop-color="#18B2C8"/>
</linearGradient>
</defs>
</svg>
